<svg width="409" height="101" viewBox="0 0 409 101" fill="none" xmlns="http://www.w3.org/2000/svg">
<path d="M338.411 46.1315C337.935 45.5201 337.052 45.3842 336.441 45.7918L335.965 46.1315C335.422 46.4712 335.082 46.9468 335.014 47.4903C334.946 47.83 334.946 48.1697 334.878 48.5094C334.81 49.1209 334.742 49.7323 334.538 50.2079C334.403 50.5476 334.199 51.3629 333.995 51.5667C328.288 55.3034 322.649 55.5752 317.078 52.4499C312.254 49.6644 308.789 44.7727 307.634 39.0658C306.479 33.155 307.77 27.1083 311.371 22.5563C317.01 15.2868 325.842 13.3165 333.316 17.8005C334.403 18.412 334.606 18.9555 334.606 19.7029C334.606 20.4502 334.742 21.1296 334.878 21.8769C334.946 22.2166 335.014 22.5563 335.082 22.896L335.286 23.9151C335.354 24.4587 335.829 24.9342 336.373 25.0701C336.916 25.206 337.528 25.0022 337.868 24.5266L348.602 9.9195C348.942 9.44392 348.942 8.83246 348.67 8.28894C348.33 7.81336 347.787 7.5416 347.175 7.60954L345.409 7.8813C344.797 7.94924 344.39 8.08512 343.982 8.15306C342.352 8.42482 341.265 8.221 339.974 7.40572C337.732 6.04692 335.286 4.95989 332.772 4.28049C327.473 2.78581 321.63 3.19344 321.562 3.19344C314.564 4.00872 308.45 7.2019 303.354 12.705C293.775 23.0999 292.28 40.2207 299.821 52.5858C304.033 59.5157 310.624 64.3394 318.369 66.1059C320.543 66.6494 322.785 66.8532 324.959 66.8532C330.258 66.8532 335.422 65.3585 339.974 62.5051C341.876 61.2821 343.031 61.2821 344.186 61.5539C344.526 61.6218 344.933 61.6898 345.341 61.7577H345.409C345.545 61.7577 345.749 61.8256 346.02 61.8256L347.107 62.0295C347.651 62.0974 348.262 61.8936 348.602 61.3501C348.942 60.8745 348.874 60.1951 348.534 59.7195L338.411 46.1315Z" fill="url(#paint0_linear_200_8440)"/>
<path d="M338.411 46.1315C337.935 45.5201 337.052 45.3842 336.441 45.7918L335.965 46.1315C335.422 46.4712 335.082 46.9468 335.014 47.4903C334.946 47.83 334.946 48.1697 334.878 48.5094C334.81 49.1209 334.742 49.7323 334.538 50.2079C334.403 50.5476 334.199 51.3629 333.995 51.5667C328.288 55.3034 322.649 55.5752 317.078 52.4499C312.254 49.6644 308.789 44.7727 307.634 39.0658C306.479 33.155 307.77 27.1083 311.371 22.5563C317.01 15.2868 325.842 13.3165 333.316 17.8005C334.403 18.412 334.606 18.9555 334.606 19.7029C334.606 20.4502 334.742 21.1296 334.878 21.8769C334.946 22.2166 335.014 22.5563 335.082 22.896L335.286 23.9151C335.354 24.4587 335.829 24.9342 336.373 25.0701C336.916 25.206 337.528 25.0022 337.868 24.5266L348.602 9.9195C348.942 9.44392 348.942 8.83246 348.67 8.28894C348.33 7.81336 347.787 7.5416 347.175 7.60954L345.409 7.8813C344.797 7.94924 344.39 8.08512 343.982 8.15306C342.352 8.42482 341.265 8.221 339.974 7.40572C337.732 6.04692 335.286 4.95989 332.772 4.28049C327.473 2.78581 321.63 3.19344 321.562 3.19344C314.564 4.00872 308.45 7.2019 303.354 12.705C293.775 23.0999 292.28 40.2207 299.821 52.5858C304.033 59.5157 310.624 64.3394 318.369 66.1059C320.543 66.6494 322.785 66.8532 324.959 66.8532C330.258 66.8532 335.422 65.3585 339.974 62.5051C341.876 61.2821 343.031 61.2821 344.186 61.5539C344.526 61.6218 344.933 61.6898 345.341 61.7577H345.409C345.545 61.7577 345.749 61.8256 346.02 61.8256L347.107 62.0295C347.651 62.0974 348.262 61.8936 348.602 61.3501C348.942 60.8745 348.874 60.1951 348.534 59.7195L338.411 46.1315Z" fill="url(#paint1_radial_200_8440)"/>
<path d="M294.862 4.00883C294.591 3.53325 294.115 3.19356 293.572 3.19356H275.635C275.024 3.19356 274.548 3.53326 274.277 4.07678C274.073 4.6203 274.209 5.23176 274.616 5.6394L275.432 6.38673C275.771 6.72643 276.111 6.9982 276.383 7.3379L276.451 7.40583C277.13 8.08523 277.742 8.62876 278.285 9.17228C278.557 9.44404 278.625 9.85168 278.625 9.98756V16.0342C278.693 24.5267 278.693 33.291 278.557 41.9194C278.489 46.879 275.975 50.6836 271.355 52.9936C266.939 55.2356 262.727 54.8959 258.514 52.0424C254.71 49.4607 252.808 45.5202 252.808 40.3567C252.808 37.0956 252.808 33.7666 252.808 30.5054V30.3016C252.808 24.7985 252.808 18.6159 252.74 12.5693C252.672 9.64786 253.487 8.49287 254.778 7.54171C255.253 7.20201 255.593 6.79437 255.797 6.38673C255.865 6.25085 255.933 6.11497 256.069 6.04703L256.612 5.2997C256.952 4.89206 257.02 4.28059 256.748 3.80501C256.476 3.32943 256.001 2.98973 255.457 2.98973H237.657C237.045 2.98973 236.57 3.32944 236.298 3.87296C236.094 4.41648 236.162 5.02794 236.57 5.43558L237.317 6.18291C237.521 6.38673 237.657 6.59056 237.861 6.79438C238.2 7.20202 238.54 7.60965 239.016 7.88141C240.035 8.62875 240.646 9.51197 240.578 11.8219C240.442 21.2656 240.51 30.9131 240.51 40.2209V42.0552C240.51 43.6858 240.714 45.3163 241.054 46.879C243.772 58.7005 253.691 66.6495 265.716 66.6495C267.007 66.6495 268.366 66.5816 269.725 66.3778C281.546 64.6793 290.99 53.673 290.786 41.9194C290.718 36.9597 290.718 32.0001 290.718 27.1764C290.718 22.6244 290.786 17.5289 290.65 12.6372C290.582 9.71579 291.397 8.56082 292.62 7.60966C293.096 7.26996 293.436 6.79438 293.707 6.45468C293.775 6.38674 293.843 6.25085 293.911 6.18291L294.455 5.43558C295.066 5.09588 295.134 4.48441 294.862 4.00883Z" fill="url(#paint2_linear_200_8440)"/>
<path d="M294.862 4.00883C294.591 3.53325 294.115 3.19356 293.572 3.19356H275.635C275.024 3.19356 274.548 3.53326 274.277 4.07678C274.073 4.6203 274.209 5.23176 274.616 5.6394L275.432 6.38673C275.771 6.72643 276.111 6.9982 276.383 7.3379L276.451 7.40583C277.13 8.08523 277.742 8.62876 278.285 9.17228C278.557 9.44404 278.625 9.85168 278.625 9.98756V16.0342C278.693 24.5267 278.693 33.291 278.557 41.9194C278.489 46.879 275.975 50.6836 271.355 52.9936C266.939 55.2356 262.727 54.8959 258.514 52.0424C254.71 49.4607 252.808 45.5202 252.808 40.3567C252.808 37.0956 252.808 33.7666 252.808 30.5054V30.3016C252.808 24.7985 252.808 18.6159 252.74 12.5693C252.672 9.64786 253.487 8.49287 254.778 7.54171C255.253 7.20201 255.593 6.79437 255.797 6.38673C255.865 6.25085 255.933 6.11497 256.069 6.04703L256.612 5.2997C256.952 4.89206 257.02 4.28059 256.748 3.80501C256.476 3.32943 256.001 2.98973 255.457 2.98973H237.657C237.045 2.98973 236.57 3.32944 236.298 3.87296C236.094 4.41648 236.162 5.02794 236.57 5.43558L237.317 6.18291C237.521 6.38673 237.657 6.59056 237.861 6.79438C238.2 7.20202 238.54 7.60965 239.016 7.88141C240.035 8.62875 240.646 9.51197 240.578 11.8219C240.442 21.2656 240.51 30.9131 240.51 40.2209V42.0552C240.51 43.6858 240.714 45.3163 241.054 46.879C243.772 58.7005 253.691 66.6495 265.716 66.6495C267.007 66.6495 268.366 66.5816 269.725 66.3778C281.546 64.6793 290.99 53.673 290.786 41.9194C290.718 36.9597 290.718 32.0001 290.718 27.1764C290.718 22.6244 290.786 17.5289 290.65 12.6372C290.582 9.71579 291.397 8.56082 292.62 7.60966C293.096 7.26996 293.436 6.79438 293.707 6.45468C293.775 6.38674 293.843 6.25085 293.911 6.18291L294.455 5.43558C295.066 5.09588 295.134 4.48441 294.862 4.00883Z" fill="url(#paint3_radial_200_8440)"/>
<path d="M407.778 3.94063C407.506 3.46505 407.031 3.12534 406.487 3.12534H390.25C389.706 3.12534 389.163 3.46505 388.959 3.94063C388.687 4.41621 388.823 5.02766 389.162 5.50324L389.774 6.25059C389.91 6.38647 389.978 6.52235 390.114 6.65823C390.589 7.20175 390.657 7.94908 390.25 8.56054C390.182 8.69642 390.114 8.83231 389.978 8.96819L386.377 15.1507C384.543 18.208 382.776 21.3333 380.942 24.3906C380.059 25.8852 379.107 27.4479 378.224 29.0105L365.995 8.56054C365.587 7.88114 365.655 7.06587 366.199 6.45441L367.082 5.50324C367.49 5.0956 367.558 4.48415 367.354 3.94063C367.15 3.39711 366.606 3.05741 366.063 3.05741H349.35C348.806 3.05741 348.263 3.39711 348.059 3.87269C347.855 4.41621 347.923 4.95973 348.263 5.43531L348.874 6.18264C349.35 6.72616 349.825 7.26969 350.369 7.81321C351.32 8.83231 352.203 9.71553 352.815 10.7346C359.201 21.1294 365.587 31.864 371.498 41.8511C371.77 42.3267 371.974 43.0741 371.974 43.7535C371.974 45.452 371.974 47.2184 371.974 48.9169V48.9848C371.974 51.6345 371.906 54.3521 372.042 57.0697C372.177 60.127 371.43 61.282 370.139 62.1652C369.732 62.437 369.46 62.7767 369.188 63.1164C369.12 63.1843 369.052 63.3202 368.916 63.4561L368.305 64.2034C367.965 64.611 367.897 65.2225 368.101 65.766C368.305 66.2416 368.848 66.5813 369.392 66.5813H385.969C386.513 66.5813 386.988 66.3096 387.192 65.834L387.736 64.8828C388.075 64.2713 387.94 63.524 387.464 63.0484L387.192 62.7767C387.056 62.6408 386.92 62.5729 386.785 62.437L386.717 62.369C386.377 62.0293 385.901 61.6217 385.494 61.282C384.746 60.7385 384.339 60.0591 384.407 58.4285C384.475 55.575 384.475 52.6536 384.475 49.8681C384.475 47.8299 384.475 45.8596 384.475 43.8214C384.475 43.142 384.678 42.5985 384.814 42.3267C387.396 38.1144 389.91 33.7663 392.288 29.4861C396.772 21.5371 401.46 13.3163 407.099 5.97883L407.642 5.23149C407.982 5.02767 408.05 4.41621 407.778 3.94063Z" fill="url(#paint4_linear_200_8440)"/>
<path d="M407.778 3.94063C407.506 3.46505 407.031 3.12534 406.487 3.12534H390.25C389.706 3.12534 389.163 3.46505 388.959 3.94063C388.687 4.41621 388.823 5.02766 389.162 5.50324L389.774 6.25059C389.91 6.38647 389.978 6.52235 390.114 6.65823C390.589 7.20175 390.657 7.94908 390.25 8.56054C390.182 8.69642 390.114 8.83231 389.978 8.96819L386.377 15.1507C384.543 18.208 382.776 21.3333 380.942 24.3906C380.059 25.8852 379.107 27.4479 378.224 29.0105L365.995 8.56054C365.587 7.88114 365.655 7.06587 366.199 6.45441L367.082 5.50324C367.49 5.0956 367.558 4.48415 367.354 3.94063C367.15 3.39711 366.606 3.05741 366.063 3.05741H349.35C348.806 3.05741 348.263 3.39711 348.059 3.87269C347.855 4.41621 347.923 4.95973 348.263 5.43531L348.874 6.18264C349.35 6.72616 349.825 7.26969 350.369 7.81321C351.32 8.83231 352.203 9.71553 352.815 10.7346C359.201 21.1294 365.587 31.864 371.498 41.8511C371.77 42.3267 371.974 43.0741 371.974 43.7535C371.974 45.452 371.974 47.2184 371.974 48.9169V48.9848C371.974 51.6345 371.906 54.3521 372.042 57.0697C372.177 60.127 371.43 61.282 370.139 62.1652C369.732 62.437 369.46 62.7767 369.188 63.1164C369.12 63.1843 369.052 63.3202 368.916 63.4561L368.305 64.2034C367.965 64.611 367.897 65.2225 368.101 65.766C368.305 66.2416 368.848 66.5813 369.392 66.5813H385.969C386.513 66.5813 386.988 66.3096 387.192 65.834L387.736 64.8828C388.075 64.2713 387.94 63.524 387.464 63.0484L387.192 62.7767C387.056 62.6408 386.92 62.5729 386.785 62.437L386.717 62.369C386.377 62.0293 385.901 61.6217 385.494 61.282C384.746 60.7385 384.339 60.0591 384.407 58.4285C384.475 55.575 384.475 52.6536 384.475 49.8681C384.475 47.8299 384.475 45.8596 384.475 43.8214C384.475 43.142 384.678 42.5985 384.814 42.3267C387.396 38.1144 389.91 33.7663 392.288 29.4861C396.772 21.5371 401.46 13.3163 407.099 5.97883L407.642 5.23149C407.982 5.02767 408.05 4.41621 407.778 3.94063Z" fill="url(#paint5_radial_200_8440)"/>
<path d="M235.414 50.1399C234.871 49.9361 234.191 50.072 233.852 50.5475L233.104 51.4308C232.901 51.6346 232.697 51.8384 232.561 52.0422L232.425 52.1781C232.085 52.5178 231.814 52.8575 231.474 53.2651C230.794 54.2163 229.979 54.4881 228.281 54.4881C223.253 54.4201 218.226 54.4201 213.334 54.4201H212.926C211.16 54.4201 209.393 54.4201 207.627 54.4201H207.355V53.8087C207.355 51.0231 207.355 48.2376 207.355 45.52V42.8024C207.355 33.1549 207.355 23.0998 207.287 13.2485C207.287 9.98736 207.763 8.56062 209.461 7.47358C209.869 7.20182 210.141 6.86211 210.345 6.52241C210.412 6.45447 210.48 6.38654 210.548 6.25066L211.16 5.50331C211.499 5.09567 211.567 4.48422 211.364 3.9407C211.092 3.46512 210.616 3.12541 210.073 3.12541H192.272C191.661 3.12541 191.185 3.46512 190.914 4.00864C190.71 4.55216 190.778 5.16362 191.185 5.57126L191.865 6.3186C192.069 6.52242 192.205 6.72623 192.408 6.86211C192.816 7.26975 193.156 7.6774 193.631 8.08504C194.582 8.76444 195.126 9.64766 195.126 11.7538C195.058 25.6815 194.99 40.6283 195.126 55.643C195.194 59.7194 194.514 61.4179 192.476 62.8447C191.865 63.2523 191.729 63.7958 191.661 64.0676L191.389 64.747C191.253 65.1546 191.321 65.6982 191.593 66.0379C191.865 66.4455 192.272 66.6493 192.748 66.6493H234.871C235.686 66.6493 236.298 65.9699 236.298 65.2226V51.4308C236.298 50.8872 235.958 50.3437 235.414 50.1399Z" fill="url(#paint6_linear_200_8440)"/>
<path d="M235.414 50.1399C234.871 49.9361 234.191 50.072 233.852 50.5475L233.104 51.4308C232.901 51.6346 232.697 51.8384 232.561 52.0422L232.425 52.1781C232.085 52.5178 231.814 52.8575 231.474 53.2651C230.794 54.2163 229.979 54.4881 228.281 54.4881C223.253 54.4201 218.226 54.4201 213.334 54.4201H212.926C211.16 54.4201 209.393 54.4201 207.627 54.4201H207.355V53.8087C207.355 51.0231 207.355 48.2376 207.355 45.52V42.8024C207.355 33.1549 207.355 23.0998 207.287 13.2485C207.287 9.98736 207.763 8.56062 209.461 7.47358C209.869 7.20182 210.141 6.86211 210.345 6.52241C210.412 6.45447 210.48 6.38654 210.548 6.25066L211.16 5.50331C211.499 5.09567 211.567 4.48422 211.364 3.9407C211.092 3.46512 210.616 3.12541 210.073 3.12541H192.272C191.661 3.12541 191.185 3.46512 190.914 4.00864C190.71 4.55216 190.778 5.16362 191.185 5.57126L191.865 6.3186C192.069 6.52242 192.205 6.72623 192.408 6.86211C192.816 7.26975 193.156 7.6774 193.631 8.08504C194.582 8.76444 195.126 9.64766 195.126 11.7538C195.058 25.6815 194.99 40.6283 195.126 55.643C195.194 59.7194 194.514 61.4179 192.476 62.8447C191.865 63.2523 191.729 63.7958 191.661 64.0676L191.389 64.747C191.253 65.1546 191.321 65.6982 191.593 66.0379C191.865 66.4455 192.272 66.6493 192.748 66.6493H234.871C235.686 66.6493 236.298 65.9699 236.298 65.2226V51.4308C236.298 50.8872 235.958 50.3437 235.414 50.1399Z" fill="url(#paint7_radial_200_8440)"/>
<path d="M151.645 16.5777C146.753 8.90052 138.736 3.9409 129.768 2.98974C121.004 2.10652 112.443 5.23176 106.329 11.6181C95.7982 22.4885 94.0317 39.6773 102.049 52.518C107.62 61.4861 116.995 66.7854 127.186 66.7854C130.923 66.7854 134.524 66.0381 137.989 64.6113C149.471 59.7876 157.284 47.6943 156.944 35.2613C157.08 28.4673 155.314 22.2847 151.645 16.5777ZM144.511 37.0956C143.9 42.9385 140.91 48.2378 136.358 51.431C129.157 56.5944 119.441 55.0318 113.87 47.7622C110.949 43.9576 109.59 39.8132 109.59 34.7177C109.59 26.5649 114.006 19.4992 120.8 16.5777C122.906 15.6945 125.08 15.2189 127.186 15.2189C131.806 15.2189 136.222 17.3251 139.687 21.1977C143.424 25.4099 145.191 31.1848 144.511 37.0956Z" fill="url(#paint8_linear_200_8440)"/>
<path d="M151.645 16.5777C146.753 8.90052 138.736 3.9409 129.768 2.98974C121.004 2.10652 112.443 5.23176 106.329 11.6181C95.7982 22.4885 94.0317 39.6773 102.049 52.518C107.62 61.4861 116.995 66.7854 127.186 66.7854C130.923 66.7854 134.524 66.0381 137.989 64.6113C149.471 59.7876 157.284 47.6943 156.944 35.2613C157.08 28.4673 155.314 22.2847 151.645 16.5777ZM144.511 37.0956C143.9 42.9385 140.91 48.2378 136.358 51.431C129.157 56.5944 119.441 55.0318 113.87 47.7622C110.949 43.9576 109.59 39.8132 109.59 34.7177C109.59 26.5649 114.006 19.4992 120.8 16.5777C122.906 15.6945 125.08 15.2189 127.186 15.2189C131.806 15.2189 136.222 17.3251 139.687 21.1977C143.424 25.4099 145.191 31.1848 144.511 37.0956Z" fill="url(#paint9_radial_200_8440)"/>
<path d="M93.3523 50.0041C92.8087 49.8003 92.1973 49.9361 91.7896 50.3438L91.0423 51.1591C90.7026 51.4988 90.3629 51.9064 90.0911 52.1782C89.5476 52.7896 89.14 53.2652 88.6644 53.6728C88.2568 54.0125 87.8491 54.1484 87.7132 54.2164C80.8513 54.2843 73.9214 54.2164 67.0595 54.2843C67.1274 51.5667 67.0595 48.7812 67.0595 46.1315V41.1719H67.3312C68.8259 41.1719 70.3885 41.1719 71.9512 41.1719C75.3482 41.2398 79.2207 41.2398 82.8895 41.1039C85.675 40.9681 87.6453 41.3078 89.14 43.4139C89.6835 44.2292 90.5667 44.2971 90.9064 44.2971L91.5179 44.3651C91.9255 44.433 92.3332 44.2971 92.6729 44.0254C93.0126 43.7536 93.1484 43.346 93.1484 42.9383V27.2442C93.1484 26.7007 92.8767 26.2251 92.4011 25.9533L91.4499 25.4098C90.8385 25.0701 90.1591 25.206 89.6835 25.6816L89.4797 25.9533C89.2079 26.2251 89.0041 26.4968 88.8003 26.7686C88.3247 27.3121 87.9171 27.7877 87.4415 28.1953C87.0339 28.535 86.6262 28.6709 86.4903 28.7389C80.104 28.8068 73.6497 28.7389 67.2633 28.8068C67.3312 24.3228 67.3312 19.9067 67.2633 15.4906C67.2633 15.4226 67.2633 15.4226 67.2633 15.3547C67.3312 15.3547 67.3992 15.3547 67.5351 15.3547H69.5053C74.4649 15.4226 79.6284 15.4906 84.656 15.2867C87.3056 15.1509 89.2079 15.4906 90.5667 17.5288C90.9744 18.1402 91.5858 18.344 91.9255 18.412L92.537 18.6837C93.0126 18.8876 93.4881 18.8196 93.8958 18.5479C94.3034 18.2761 94.5072 17.8005 94.5072 17.3249V4.62016C94.5072 3.80488 93.8278 3.19342 93.0805 3.19342H53.1997C52.6562 3.19342 52.1806 3.46518 51.9089 3.94076L51.3653 4.89192C51.0256 5.50338 51.1615 6.31866 51.773 6.7263L52.4524 7.26982C52.7921 7.47364 53.0638 7.7454 53.4035 7.94922C54.3547 8.62862 54.9662 9.51184 54.9662 11.8897C54.8303 29.4862 54.8303 43.8215 54.9662 57.0698C54.9662 59.9233 54.4226 61.2821 52.86 62.4371C52.4524 62.7768 52.1806 63.1165 51.9768 63.3883C51.9089 63.4562 51.9089 63.5241 51.8409 63.5921L51.2295 64.3394C50.8898 64.7471 50.8218 65.3585 51.0256 65.902C51.2295 66.4455 51.773 66.7173 52.3165 66.7173H92.8087C93.624 66.7173 94.2355 66.0379 94.2355 65.2906V51.4308C94.3034 50.7514 93.8958 50.2079 93.3523 50.0041Z" fill="url(#paint10_linear_200_8440)"/>
<path d="M93.3523 50.0041C92.8087 49.8003 92.1973 49.9361 91.7896 50.3438L91.0423 51.1591C90.7026 51.4988 90.3629 51.9064 90.0911 52.1782C89.5476 52.7896 89.14 53.2652 88.6644 53.6728C88.2568 54.0125 87.8491 54.1484 87.7132 54.2164C80.8513 54.2843 73.9214 54.2164 67.0595 54.2843C67.1274 51.5667 67.0595 48.7812 67.0595 46.1315V41.1719H67.3312C68.8259 41.1719 70.3885 41.1719 71.9512 41.1719C75.3482 41.2398 79.2207 41.2398 82.8895 41.1039C85.675 40.9681 87.6453 41.3078 89.14 43.4139C89.6835 44.2292 90.5667 44.2971 90.9064 44.2971L91.5179 44.3651C91.9255 44.433 92.3332 44.2971 92.6729 44.0254C93.0126 43.7536 93.1484 43.346 93.1484 42.9383V27.2442C93.1484 26.7007 92.8767 26.2251 92.4011 25.9533L91.4499 25.4098C90.8385 25.0701 90.1591 25.206 89.6835 25.6816L89.4797 25.9533C89.2079 26.2251 89.0041 26.4968 88.8003 26.7686C88.3247 27.3121 87.9171 27.7877 87.4415 28.1953C87.0339 28.535 86.6262 28.6709 86.4903 28.7389C80.104 28.8068 73.6497 28.7389 67.2633 28.8068C67.3312 24.3228 67.3312 19.9067 67.2633 15.4906C67.2633 15.4226 67.2633 15.4226 67.2633 15.3547C67.3312 15.3547 67.3992 15.3547 67.5351 15.3547H69.5053C74.4649 15.4226 79.6284 15.4906 84.656 15.2867C87.3056 15.1509 89.2079 15.4906 90.5667 17.5288C90.9744 18.1402 91.5858 18.344 91.9255 18.412L92.537 18.6837C93.0126 18.8876 93.4881 18.8196 93.8958 18.5479C94.3034 18.2761 94.5072 17.8005 94.5072 17.3249V4.62016C94.5072 3.80488 93.8278 3.19342 93.0805 3.19342H53.1997C52.6562 3.19342 52.1806 3.46518 51.9089 3.94076L51.3653 4.89192C51.0256 5.50338 51.1615 6.31866 51.773 6.7263L52.4524 7.26982C52.7921 7.47364 53.0638 7.7454 53.4035 7.94922C54.3547 8.62862 54.9662 9.51184 54.9662 11.8897C54.8303 29.4862 54.8303 43.8215 54.9662 57.0698C54.9662 59.9233 54.4226 61.2821 52.86 62.4371C52.4524 62.7768 52.1806 63.1165 51.9768 63.3883C51.9089 63.4562 51.9089 63.5241 51.8409 63.5921L51.2295 64.3394C50.8898 64.7471 50.8218 65.3585 51.0256 65.902C51.2295 66.4455 51.773 66.7173 52.3165 66.7173H92.8087C93.624 66.7173 94.2355 66.0379 94.2355 65.2906V51.4308C94.3034 50.7514 93.8958 50.2079 93.3523 50.0041Z" fill="url(#paint11_radial_200_8440)"/>
<path d="M48.444 50.0042C47.9005 49.8004 47.2211 49.9363 46.8814 50.4119L46.1341 51.2951C45.9302 51.4989 45.7264 51.7027 45.5905 51.9065L45.4547 52.0424C45.115 52.3821 44.7753 52.7218 44.5035 53.1295C43.8241 54.0806 43.0088 54.3524 41.3103 54.3524C36.2828 54.2844 31.2552 54.2844 26.3635 54.2844H25.9559C24.1895 54.2844 22.423 54.2844 20.6566 54.2844H20.3848V53.673C20.3848 50.7515 20.3848 47.8981 20.3848 44.9767V42.8705C20.3848 33.1551 20.3848 23.032 20.3169 13.1128C20.3169 9.85168 20.7924 8.42494 22.4909 7.3379C22.8986 7.06614 23.1704 6.72643 23.3742 6.38673C23.4421 6.31879 23.5101 6.25086 23.578 6.11498L24.1894 5.36763C24.5292 4.95999 24.5971 4.34853 24.3933 3.80501C24.1215 3.32943 23.6459 2.98973 23.1024 2.98973H5.30213C4.69067 2.98973 4.21509 3.32944 3.94333 3.87296C3.73951 4.41648 3.80745 5.02794 4.21509 5.43558L4.89449 6.18291C5.09831 6.38673 5.23419 6.59055 5.43801 6.72643C5.77771 7.13407 6.18535 7.54171 6.66093 7.88141C7.61209 8.56081 8.15561 9.44404 8.15561 11.5502C8.08767 25.4779 8.01973 40.4247 8.15561 55.4394C8.22355 59.5158 7.54415 61.2143 5.50595 62.6411C4.89449 63.0487 4.75861 63.5922 4.69067 63.864L4.41891 64.5434C4.28303 65.0189 4.35097 65.4945 4.62273 65.8342C4.89449 66.2419 5.30213 66.4457 5.77771 66.4457H47.9005C48.7158 66.4457 49.3272 65.7663 49.3272 65.019V51.2271C49.3952 50.8195 48.9875 50.276 48.444 50.0042Z" fill="url(#paint12_linear_200_8440)"/>
<path d="M48.444 50.0042C47.9005 49.8004 47.2211 49.9363 46.8814 50.4119L46.1341 51.2951C45.9302 51.4989 45.7264 51.7027 45.5905 51.9065L45.4547 52.0424C45.115 52.3821 44.7753 52.7218 44.5035 53.1295C43.8241 54.0806 43.0088 54.3524 41.3103 54.3524C36.2828 54.2844 31.2552 54.2844 26.3635 54.2844H25.9559C24.1895 54.2844 22.423 54.2844 20.6566 54.2844H20.3848V53.673C20.3848 50.7515 20.3848 47.8981 20.3848 44.9767V42.8705C20.3848 33.1551 20.3848 23.032 20.3169 13.1128C20.3169 9.85168 20.7924 8.42494 22.4909 7.3379C22.8986 7.06614 23.1704 6.72643 23.3742 6.38673C23.4421 6.31879 23.5101 6.25086 23.578 6.11498L24.1894 5.36763C24.5292 4.95999 24.5971 4.34853 24.3933 3.80501C24.1215 3.32943 23.6459 2.98973 23.1024 2.98973H5.30213C4.69067 2.98973 4.21509 3.32944 3.94333 3.87296C3.73951 4.41648 3.80745 5.02794 4.21509 5.43558L4.89449 6.18291C5.09831 6.38673 5.23419 6.59055 5.43801 6.72643C5.77771 7.13407 6.18535 7.54171 6.66093 7.88141C7.61209 8.56081 8.15561 9.44404 8.15561 11.5502C8.08767 25.4779 8.01973 40.4247 8.15561 55.4394C8.22355 59.5158 7.54415 61.2143 5.50595 62.6411C4.89449 63.0487 4.75861 63.5922 4.69067 63.864L4.41891 64.5434C4.28303 65.0189 4.35097 65.4945 4.62273 65.8342C4.89449 66.2419 5.30213 66.4457 5.77771 66.4457H47.9005C48.7158 66.4457 49.3272 65.7663 49.3272 65.019V51.2271C49.3952 50.8195 48.9875 50.276 48.444 50.0042Z" fill="url(#paint13_radial_200_8440)"/>
<path d="M183.984 61.1462C182.354 61.0783 181.742 60.9424 181.606 60.9424C181.47 60.8745 181.131 60.4668 180.587 59.4477C180.587 59.4477 180.519 59.3798 180.519 59.3119C180.383 59.108 180.315 58.9722 180.18 58.8363C181.403 56.934 182.286 54.8958 182.829 52.7217L183.169 51.3629C184.664 51.2949 187.313 51.0911 187.313 48.7812C187.313 47.5582 186.362 46.1994 184.324 46.1994H181.674C177.394 46.1994 176.443 46.2674 176.035 46.2674C175.831 46.2674 175.696 46.3353 175.56 46.3353C176.307 45.1124 176.579 43.8895 176.579 42.8704C176.579 40.7642 175.628 38.9978 173.929 37.639C172.366 36.4161 170.328 35.8046 167.882 35.8046C165.301 35.8046 163.127 36.552 161.428 37.9787C159.662 39.4734 158.711 41.5116 158.711 43.8215C158.711 45.588 159.39 47.1506 160.817 48.6453C157.08 50.9552 155.178 53.8767 155.178 57.4095C155.178 60.1271 156.333 62.505 158.575 64.2035C160.681 65.8341 163.33 66.5814 166.524 66.5814C169.513 66.5814 172.095 65.97 174.201 64.7471C174.405 65.0868 174.473 65.2226 174.541 65.2906L174.744 65.5623C175.016 65.97 175.424 66.1738 175.899 66.1738H184.392C186.158 66.1738 187.109 64.9509 187.109 63.728C187.042 62.505 186.09 61.1462 183.984 61.1462ZM177.054 51.227C176.918 52.0423 176.647 52.8576 176.307 53.7408C174.744 51.9064 173.386 50.3438 172.299 49.1209C172.638 48.917 172.978 48.7132 173.25 48.5094C173.25 48.5773 173.25 48.5773 173.25 48.6453C173.182 50.3438 174.473 51.227 177.054 51.227ZM168.222 46.0636C166.456 44.5689 165.505 43.2101 165.505 42.0551C165.505 41.4436 165.64 41.036 166.048 40.6963C166.388 40.3566 166.863 40.1528 167.475 40.1528C167.814 40.1528 168.222 40.2207 168.63 40.8322C169.037 41.4436 169.241 42.2589 169.241 43.278C169.241 44.7727 168.766 45.588 168.222 46.0636ZM163.195 55.9149C163.195 54.2843 163.738 52.9934 164.893 51.9064C168.154 55.2355 170.6 58.0889 172.231 60.3989C171.008 61.2821 169.649 61.6898 168.154 61.6898C166.727 61.6898 165.572 61.1462 164.689 60.1271C163.67 58.9721 163.195 57.6134 163.195 55.9149Z" fill="url(#paint14_linear_200_8440)"/>
<path d="M183.984 61.1462C182.354 61.0783 181.742 60.9424 181.606 60.9424C181.47 60.8745 181.131 60.4668 180.587 59.4477C180.587 59.4477 180.519 59.3798 180.519 59.3119C180.383 59.108 180.315 58.9722 180.18 58.8363C181.403 56.934 182.286 54.8958 182.829 52.7217L183.169 51.3629C184.664 51.2949 187.313 51.0911 187.313 48.7812C187.313 47.5582 186.362 46.1994 184.324 46.1994H181.674C177.394 46.1994 176.443 46.2674 176.035 46.2674C175.831 46.2674 175.696 46.3353 175.56 46.3353C176.307 45.1124 176.579 43.8895 176.579 42.8704C176.579 40.7642 175.628 38.9978 173.929 37.639C172.366 36.4161 170.328 35.8046 167.882 35.8046C165.301 35.8046 163.127 36.552 161.428 37.9787C159.662 39.4734 158.711 41.5116 158.711 43.8215C158.711 45.588 159.39 47.1506 160.817 48.6453C157.08 50.9552 155.178 53.8767 155.178 57.4095C155.178 60.1271 156.333 62.505 158.575 64.2035C160.681 65.8341 163.33 66.5814 166.524 66.5814C169.513 66.5814 172.095 65.97 174.201 64.7471C174.405 65.0868 174.473 65.2226 174.541 65.2906L174.744 65.5623C175.016 65.97 175.424 66.1738 175.899 66.1738H184.392C186.158 66.1738 187.109 64.9509 187.109 63.728C187.042 62.505 186.09 61.1462 183.984 61.1462ZM177.054 51.227C176.918 52.0423 176.647 52.8576 176.307 53.7408C174.744 51.9064 173.386 50.3438 172.299 49.1209C172.638 48.917 172.978 48.7132 173.25 48.5094C173.25 48.5773 173.25 48.5773 173.25 48.6453C173.182 50.3438 174.473 51.227 177.054 51.227ZM168.222 46.0636C166.456 44.5689 165.505 43.2101 165.505 42.0551C165.505 41.4436 165.64 41.036 166.048 40.6963C166.388 40.3566 166.863 40.1528 167.475 40.1528C167.814 40.1528 168.222 40.2207 168.63 40.8322C169.037 41.4436 169.241 42.2589 169.241 43.278C169.241 44.7727 168.766 45.588 168.222 46.0636ZM163.195 55.9149C163.195 54.2843 163.738 52.9934 164.893 51.9064C168.154 55.2355 170.6 58.0889 172.231 60.3989C171.008 61.2821 169.649 61.6898 168.154 61.6898C166.727 61.6898 165.572 61.1462 164.689 60.1271C163.67 58.9721 163.195 57.6134 163.195 55.9149Z" fill="url(#paint15_radial_200_8440)"/>
<path d="M324.892 65.3583C322.786 65.3583 320.748 65.0865 318.642 64.6109C311.304 62.8445 305.054 58.2925 300.977 51.7023C293.708 39.8808 295.134 23.4393 304.306 13.5201C309.13 8.28868 314.973 5.23137 321.631 4.48403C321.835 4.48403 327.406 4.14433 332.298 5.50313C334.676 6.18253 336.985 7.20164 339.092 8.4925C340.654 9.44366 342.081 9.71542 344.119 9.37572C344.527 9.30778 344.934 9.23983 345.546 9.10395L347.312 8.8322L336.578 23.4393L336.374 22.4202C336.306 22.0126 336.238 21.6729 336.17 21.3332C336.034 20.6538 335.898 20.0423 335.898 19.4988C335.898 18.14 335.287 17.1888 333.928 16.3735C325.775 11.5498 316.196 13.588 310.081 21.537C306.277 26.4966 304.85 32.883 306.073 39.2014C307.296 45.3839 311.032 50.6153 316.196 53.6047C322.242 57.0696 328.493 56.7978 334.676 52.7214C335.219 52.3817 335.559 51.2947 335.763 50.6153C335.966 50.0038 336.034 49.3924 336.102 48.713C336.17 48.3733 336.17 48.1015 336.238 47.7618C336.306 47.558 336.442 47.4221 336.51 47.3542L337.053 47.0145L347.109 60.6704L346.022 60.4666C345.75 60.3986 345.546 60.3987 345.342 60.3307C344.934 60.2628 344.663 60.1948 344.391 60.1269C342.624 59.6513 341.062 59.991 339.024 61.2139C334.811 63.9995 329.92 65.3583 324.892 65.3583ZM321.767 5.4352C315.313 6.18254 309.674 9.10395 304.986 14.1995C296.086 23.8469 294.727 39.8128 301.725 51.2947C305.597 57.681 311.712 62.0972 318.846 63.7957C325.64 65.4262 332.705 64.2712 338.616 60.5345C340.858 59.1757 342.625 58.7681 344.663 59.3116C344.799 59.3796 345.002 59.3795 345.206 59.4475L337.121 48.4412C336.985 49.2565 336.918 50.0718 336.646 50.8871C336.306 51.9741 335.898 52.9253 335.151 53.4688C328.697 57.749 322.175 58.0207 315.788 54.4199C310.353 51.2947 306.48 45.8595 305.19 39.4731C303.899 32.883 305.393 26.2248 309.334 21.0614C315.72 12.7727 325.775 10.6666 334.336 15.6941C336.034 16.7132 336.782 17.8682 336.782 19.6347C336.782 20.1102 336.918 20.6538 337.053 21.3332C337.053 21.4011 337.053 21.4011 337.053 21.469L345.274 10.2589C344.867 10.3269 344.527 10.3948 344.187 10.4628C342.013 10.8025 340.315 10.5307 338.616 9.44365C336.578 8.22074 334.268 7.20163 331.958 6.52223C326.93 4.89167 322.107 5.36726 321.767 5.4352Z" fill="white"/>
<path d="M265.918 65.2911C254.776 65.2911 245.264 57.8856 242.614 46.6755C242.275 45.2488 242.071 43.6862 242.071 42.1915V40.6289C242.003 31.2532 242.003 21.5377 242.139 12.0261C242.139 9.51235 241.527 8.01767 239.965 6.86269C239.625 6.59093 239.353 6.31917 239.014 5.91153C238.878 5.70771 238.674 5.5039 238.47 5.30008L237.723 4.55273H255.523L254.979 5.30008C254.844 5.43596 254.776 5.57183 254.64 5.70771C254.436 5.97947 254.232 6.31917 253.96 6.52299C252.058 7.88179 251.311 9.71618 251.379 12.7735C251.514 18.6843 251.447 24.663 251.447 30.4379C251.447 33.7669 251.447 37.1639 251.447 40.493C251.447 46.1999 253.621 50.5481 257.833 53.4016C262.453 56.5268 267.277 56.8665 272.1 54.4207C277.196 51.839 279.981 47.5588 280.049 42.0556C280.185 33.3593 280.117 24.5271 280.117 15.9667V10.0559C280.117 9.51236 279.845 8.83296 279.438 8.35738C278.894 7.67798 278.215 7.13445 277.535 6.38711C277.196 6.04741 276.856 5.77566 276.516 5.43596L275.701 4.68861H293.637L293.094 5.43596C293.026 5.57184 292.89 5.70771 292.822 5.84359C292.618 6.11535 292.414 6.38711 292.143 6.59093C290.24 7.94973 289.493 9.78411 289.561 12.8414C289.629 17.6652 289.629 22.6248 289.629 27.3806C289.629 32.2043 289.561 37.2319 289.697 42.1235C289.901 53.1978 281 63.5247 269.858 65.1552C268.432 65.2232 267.141 65.2911 265.918 65.2911ZM239.829 5.43596C240.101 5.70772 240.304 5.91154 240.508 6.11536C242.343 7.47416 243.09 9.24059 243.022 11.9582C242.886 21.4698 242.954 31.1852 242.954 40.5609V42.1235C242.954 43.5503 243.158 45.045 243.43 46.4038C246.215 58.4292 257.221 65.9026 269.519 64.0682C280.253 62.5056 288.746 52.5863 288.61 41.9197C288.542 36.9601 288.542 32.0005 288.542 27.1088C288.542 22.353 288.61 17.3934 288.474 12.5697C288.406 10.1918 288.746 7.5421 291.463 5.63978C291.531 5.57184 291.667 5.50389 291.735 5.36801H277.807C277.875 5.43595 277.943 5.50389 278.011 5.57183C278.758 6.25123 279.438 6.86269 280.049 7.61003C280.593 8.28943 280.932 9.17265 280.932 9.91999V15.8308C281 24.3912 281 33.2234 280.865 41.9197C280.729 47.7626 277.807 52.3145 272.44 55.0321C267.277 57.6139 262.181 57.2742 257.221 53.9451C252.737 50.9558 250.495 46.3358 250.495 40.3571C250.495 37.0281 250.495 33.631 250.495 30.302C250.495 24.5271 250.495 18.5484 250.427 12.6376C250.36 10.2597 250.699 7.61003 253.417 5.70771C253.553 5.63977 253.621 5.50389 253.757 5.36801H239.829V5.43596Z" fill="white"/>
<path d="M385.969 65.2227H369.391L370.003 64.4754C370.139 64.3395 370.207 64.2036 370.343 64.0678C370.546 63.796 370.682 63.5922 370.886 63.4563C372.856 62.0975 373.604 60.2631 373.4 57.0699C373.264 54.4203 373.264 51.7027 373.332 49.053C373.332 47.2866 373.332 45.5201 373.332 43.7537C373.332 42.8025 373.06 41.8514 372.653 41.172C366.742 31.1848 360.355 20.5182 353.901 9.98752C353.222 8.83254 352.271 7.88138 351.319 6.79434C350.844 6.31876 350.368 5.77524 349.893 5.23172L349.281 4.48438H365.994L364.432 6.25082C363.888 6.86228 363.82 7.67756 364.228 8.35696L378.224 31.7963L379.311 30.0298C380.33 28.3313 381.281 26.7008 382.232 25.0702C384.067 22.0129 385.833 18.8877 387.667 15.8304L391.268 9.64782C392.627 7.33786 392.627 7.33786 390.861 5.23172L390.249 4.48438H406.487L405.943 5.23172C400.304 12.6372 395.616 20.9259 391.064 28.8748C388.686 33.0871 386.173 37.4353 383.591 41.6476C383.251 42.1911 383.047 43.0743 382.979 43.8896C382.979 45.9278 382.979 47.898 382.979 49.9362C382.979 52.7218 382.979 55.6432 382.912 58.4287C382.844 60.399 383.319 61.554 384.61 62.5051C385.018 62.7769 385.357 63.1166 385.765 63.4563C385.901 63.5922 386.105 63.728 386.241 63.8639L386.512 64.1357L385.969 65.2227ZM371.226 64.3395H385.222L385.154 64.2716C384.814 63.9319 384.474 63.6601 384.067 63.3884C382.164 61.9616 381.96 60.0593 382.028 58.5646C382.096 55.7111 382.096 52.8577 382.096 50.0721C382.096 48.0339 382.096 45.9957 382.096 44.0255C382.096 43.0064 382.368 41.9873 382.776 41.3079C385.357 37.0956 387.871 32.7474 390.249 28.5351C394.665 20.79 399.217 12.7731 404.652 5.50347H392.083C393.51 7.33785 393.374 7.7455 391.948 10.1913L388.347 16.3739C386.512 19.4312 384.746 22.5564 382.912 25.6137C381.96 27.2443 381.009 28.8748 379.99 30.5733L378.156 33.6306L363.209 8.56077C362.733 7.74549 362.801 6.7264 363.481 6.047L363.956 5.50347H351.184C352.474 6.93021 353.765 8.08519 354.649 9.57987C361.103 20.1106 367.421 30.7771 373.4 40.7643C373.876 41.5796 374.215 42.7346 374.215 43.8216C374.215 45.5881 374.215 47.3545 374.215 49.1889C374.215 51.8386 374.147 54.4882 374.283 57.1379C374.419 59.5837 374.147 62.3693 371.362 64.2716C371.362 64.2716 371.294 64.2716 371.226 64.3395Z" fill="white"/>
<path d="M234.868 65.2223H192.745L192.949 64.6108C193.017 64.5429 193.017 64.475 193.017 64.407C193.085 64.2712 193.085 64.1353 193.221 63.9994C196.006 62.0971 196.55 59.4474 196.55 55.5748C196.346 40.5601 196.414 25.6133 196.55 11.6856C196.55 9.30769 195.938 7.9489 194.512 6.79392C194.172 6.52216 193.832 6.18246 193.492 5.77482C193.357 5.571 193.153 5.36717 192.949 5.16335L192.27 4.41602H210.07L209.458 5.16335C209.322 5.29923 209.255 5.43511 209.187 5.50305C209.051 5.70687 208.915 5.91069 208.711 6.04657C206.333 7.67713 205.858 9.85121 205.925 13.0444C205.993 22.9636 205.993 33.0867 205.993 42.87C205.993 46.4029 205.993 50.0038 205.993 53.5366V55.5748H207.692C209.594 55.5748 211.497 55.5748 213.399 55.5748C218.291 55.5748 223.318 55.5748 228.346 55.6428C230.18 55.7107 231.607 55.371 232.762 53.8763C233.034 53.5366 233.305 53.2649 233.645 52.8572C233.849 52.6534 234.053 52.4496 234.256 52.1778L235.004 51.2946V65.2223H234.868ZM194.308 64.3391H233.985V53.7404C233.713 54.0122 233.509 54.284 233.305 54.4878C231.879 56.458 229.908 56.6619 228.142 56.6619C223.182 56.5939 218.155 56.5939 213.263 56.5939C211.361 56.5939 209.458 56.5939 207.556 56.5939H204.974V53.6725C204.974 50.1396 204.974 46.5388 204.974 43.0059C204.974 33.2226 204.974 23.0995 204.906 13.1803C204.906 10.3268 205.11 7.40538 208.1 5.43512H194.24C194.512 5.70688 194.715 5.97863 194.987 6.18245C196.686 7.47331 197.433 9.10388 197.365 11.7535C197.297 25.6812 197.229 40.628 197.365 55.6428C197.433 58.768 197.229 62.0291 194.308 64.3391Z" fill="white"/>
<path d="M127.185 65.4264C117.81 65.4264 108.706 60.4668 103.27 51.8384C95.5933 39.5413 97.2918 23.0998 107.415 12.705C113.258 6.65832 121.41 3.7369 129.699 4.55218C138.192 5.4354 145.801 10.1233 150.489 17.4608C153.954 22.9639 155.652 28.8068 155.516 35.3969C155.788 47.3544 148.383 58.8362 137.444 63.4562C134.115 64.747 130.65 65.4264 127.185 65.4264ZM126.914 5.23158C119.848 5.23158 113.054 8.08506 108.026 13.2485C98.2429 23.3716 96.5444 39.3375 104.018 51.2949C111.219 62.7768 125.079 67.5326 137.037 62.505C147.635 58.0889 154.837 46.8788 154.565 35.329C154.701 28.8747 153.071 23.1677 149.674 17.8684C145.122 10.7347 137.784 6.18274 129.563 5.36746C128.68 5.23158 127.797 5.23158 126.914 5.23158ZM127.049 56.798C121.41 56.798 115.839 54.1484 111.967 49.1888C108.706 44.9765 107.143 40.3566 107.143 34.7175C107.143 25.6815 112.103 17.6646 119.78 14.4035C127.457 11.1424 135.474 13.1126 141.317 19.6349C145.461 24.3227 147.499 30.7091 146.752 37.2993C146.005 43.8215 142.744 49.6643 137.648 53.3331C134.455 55.6431 130.786 56.798 127.049 56.798ZM127.185 13.792C124.875 13.792 122.498 14.2676 120.188 15.2188C112.85 18.344 108.094 25.9533 108.094 34.7175C108.094 40.1527 109.589 44.5688 112.714 48.6452C118.829 56.5263 129.359 58.2927 137.24 52.6537C142.132 49.1888 145.325 43.5497 146.005 37.2993C146.684 30.9809 144.782 24.7983 140.773 20.3822C136.969 16.034 132.145 13.792 127.185 13.792Z" fill="white"/>
<path d="M92.8054 65.1548H52.1094L52.7208 64.4075C52.7888 64.3395 52.8567 64.2036 52.9247 64.1357C53.0605 63.9319 53.2644 63.728 53.4682 63.5242C55.7781 61.8937 56.1858 59.7196 56.1858 57.002C56.0499 43.7537 56.0499 29.4184 56.1858 11.8219C56.1858 9.24018 55.5743 7.81344 54.0117 6.65846C53.7399 6.45464 53.4002 6.25082 53.1285 5.97906L52.4491 5.43554L52.9926 4.48438H92.8054V17.1892L92.194 16.9174C92.126 16.9174 92.0581 16.8495 91.9902 16.8495C91.7863 16.7815 91.5825 16.7136 91.4466 16.5098C89.6122 13.7922 86.8946 13.5204 84.245 13.6563C79.2174 13.8601 74.1219 13.7922 69.1623 13.7242H67.1921C66.4447 13.7242 65.9691 13.7922 65.7653 14.0639C65.5615 14.2677 65.4936 14.6754 65.4936 15.3548C65.6294 19.8388 65.5615 24.3229 65.4936 28.8748C65.4936 29.4184 65.5615 29.6901 65.6974 29.826C65.8333 29.9619 66.1729 30.0978 66.6485 30.0298C73.1708 29.9619 79.693 30.0298 86.2153 29.9619C86.8267 29.9619 87.5741 29.5542 88.0496 29.1466C88.5931 28.671 89.0687 28.1275 89.6123 27.584C89.8161 27.3122 90.0878 27.1084 90.2917 26.8366L90.4955 26.5649L91.4466 27.1084V42.8025L90.9711 42.7346C90.8352 42.7346 90.7672 42.7346 90.6993 42.7346C90.4955 42.7346 90.2917 42.7346 90.1558 42.5308C88.2535 39.7452 85.4 39.4735 82.6824 39.6094C79.0816 39.8132 75.3449 39.7452 71.812 39.6773C70.2494 39.6773 68.7547 39.6773 67.1921 39.6773H65.4936V45.8598C65.4936 48.7133 65.4936 51.6347 65.4936 54.4882C65.4936 55.0317 65.5615 55.3035 65.6974 55.4394C65.8333 55.5753 66.1729 55.6432 66.6485 55.6432C73.6464 55.5753 80.6442 55.6432 87.642 55.5753C88.2534 55.5753 89.0008 55.1676 89.4764 54.76C90.0199 54.3523 90.4955 53.7409 91.1069 53.1294C91.3787 52.7897 91.7184 52.45 92.0581 52.1103L92.8054 51.295V65.1548ZM54.0117 64.2716H91.9222V53.605C91.8543 53.6729 91.8543 53.6729 91.7863 53.7409C91.1749 54.4203 90.6993 54.9638 90.0878 55.5073C89.6802 55.7791 88.729 56.5264 87.7099 56.5264C80.7121 56.5944 73.7143 56.5264 66.7165 56.5944C65.9691 56.5944 65.4256 56.4585 65.1539 56.1188C64.7462 55.7111 64.6783 55.0317 64.6783 54.4882C64.7462 51.6347 64.6783 48.7812 64.6783 45.8598V38.7261H67.26C68.8226 38.7261 70.3173 38.7261 71.8799 38.7261C75.4128 38.7261 79.0816 38.7941 82.6824 38.6582C85.5359 38.5223 88.5252 38.7941 90.6314 41.5796V27.7878C90.4955 27.9237 90.4275 28.0596 90.2917 28.1275C89.7481 28.739 89.2726 29.2825 88.5932 29.826C88.1855 30.0978 87.2344 30.8451 86.2153 30.8451C79.693 30.913 73.1708 30.8451 66.6485 30.913C65.9012 30.8451 65.3577 30.7772 65.0859 30.4375C64.6783 30.0298 64.6103 29.3504 64.6103 28.8069C64.6783 24.2549 64.6783 19.7709 64.6103 15.2868C64.6103 14.3357 64.7462 13.7242 65.1539 13.3166C65.6974 12.7731 66.4447 12.7051 67.1921 12.7731H69.1623C74.1219 12.841 79.2174 12.9089 84.1771 12.7051C86.8946 12.5692 89.7481 12.841 91.8543 15.5586V5.29966H53.672C53.9437 5.50348 54.1476 5.63935 54.4193 5.84317C56.7293 7.47373 57.0011 9.71576 57.0011 11.754C56.8652 29.3504 56.8652 43.6858 57.0011 56.8661C57.1369 59.6517 56.7293 62.3013 54.0117 64.2716Z" fill="white"/>
<path d="M47.8992 65.1549H5.77636L5.98018 64.5435C6.04812 64.4755 6.04813 64.4076 6.04813 64.3397C6.11607 64.2038 6.11606 64.0679 6.25194 63.932C9.03748 62.0297 9.581 59.38 9.581 55.5075C9.37718 40.4927 9.44512 25.5459 9.581 11.6182C9.581 9.24031 8.96954 7.88151 7.5428 6.72653C7.2031 6.45477 6.8634 6.11507 6.5237 5.70743C6.38782 5.50361 6.184 5.2998 5.98018 5.09598L5.30078 4.34863H23.1011L22.4896 5.09598C22.3537 5.23186 22.2858 5.36774 22.2178 5.43568C22.082 5.6395 21.9461 5.84332 21.7423 5.9792C19.3644 7.60976 18.8888 9.78383 18.9567 12.977C19.0247 22.8962 19.0247 33.0193 19.0247 42.8027C19.0247 46.3355 19.0247 49.9364 19.0247 53.4693V55.5075H20.7232C22.6255 55.5075 24.5278 55.5075 26.4301 55.5075C31.3218 55.5075 36.3494 55.5075 41.3769 55.5754C43.2113 55.6433 44.638 55.3036 45.793 53.741C46.0648 53.4013 46.3365 53.1295 46.6762 52.7219C46.8801 52.5181 47.0839 52.3143 47.2877 52.0425L48.035 51.1593V65.1549H47.8992ZM7.40693 64.2717H47.0839V53.6731C46.8121 53.9448 46.6083 54.2166 46.4045 54.4204C44.9777 56.3907 43.0075 56.5945 41.241 56.5945C36.2814 56.5266 31.2539 56.5266 26.3622 56.5266C24.4599 56.5266 22.5575 56.5266 20.6552 56.5266H18.0735V53.6051C18.0735 50.0723 18.0735 46.4714 18.0735 42.9386C18.0735 33.1552 18.0735 23.0321 18.0056 13.1129C18.0056 10.2594 18.2094 7.33799 21.1987 5.36773H7.33898C7.61074 5.70743 7.81457 5.91126 8.08633 6.11508C9.78483 7.40594 10.5322 9.03649 10.4642 11.6862C10.3963 25.6139 10.3283 40.5607 10.4642 55.5754C10.5322 58.7006 10.2604 61.9617 7.40693 64.2717Z" fill="white"/>
<path d="M167.743 37.9103C169.713 37.9103 171.276 38.3859 172.499 39.2691C173.722 40.2202 174.333 41.3752 174.333 42.802C174.333 45.2478 172.499 47.0822 168.762 48.373L170.596 50.4112C172.159 52.0418 174.129 54.4197 176.643 57.409C178.409 54.6915 179.225 52.1777 179.225 49.8677C179.225 49.2563 178.953 48.9845 178.477 48.9845H178.206C177.934 49.0524 177.594 49.0524 177.119 49.0524C175.896 49.0524 175.284 48.9166 175.284 48.5769C175.284 48.373 175.556 48.3051 176.099 48.2372C176.643 48.1692 178.477 48.1692 181.603 48.1692H184.252C184.864 48.1692 185.136 48.3051 185.136 48.6448C185.136 48.9166 184.388 49.0524 182.961 49.1204C182.01 49.1883 181.467 49.3242 181.399 49.596C181.399 49.6639 181.331 49.9357 181.195 50.4792L180.787 52.1097C180.244 54.4197 179.157 56.5938 177.662 58.632C177.866 59.0396 178.274 59.5831 178.749 60.3305C179.496 61.6213 180.108 62.3687 180.584 62.6404C181.127 62.9122 182.214 63.0481 183.981 63.116C184.66 63.116 185 63.2519 185 63.5916C185 63.7954 184.796 63.9313 184.388 63.9313H182.35H179.429H176.235C176.032 63.6595 175.556 62.8443 174.809 61.5534C172.703 63.3878 169.917 64.3389 166.452 64.3389C163.734 64.3389 161.492 63.6595 159.794 62.3687C158.095 61.0778 157.212 59.3114 157.212 57.2052C157.212 53.8082 159.59 51.0906 164.278 48.9845C163.123 47.8295 162.444 47.1501 162.24 47.0142C161.221 45.9951 160.745 44.9081 160.745 43.6852C160.745 41.9867 161.424 40.5599 162.715 39.405C164.006 38.25 165.637 37.9103 167.743 37.9103ZM168.083 47.8295C169.781 47.0142 170.596 45.5196 170.596 43.2775C170.596 41.9867 170.325 40.8996 169.713 40.0164C169.102 39.2011 168.354 38.7256 167.403 38.7256C166.452 38.7256 165.637 39.0653 164.957 39.6767C164.346 40.2882 164.006 41.1035 164.006 42.0546C164.074 43.8211 165.365 45.7234 168.083 47.8295ZM168.083 63.116C170.325 63.116 172.363 62.3007 174.061 60.6702C172.295 57.9526 169.305 54.3518 164.889 50.0036C162.715 51.4983 161.696 53.4685 161.696 55.9823C161.696 58.0205 162.308 59.787 163.531 61.1458C164.754 62.4366 166.248 63.116 168.083 63.116ZM167.743 37.2988C165.501 37.2988 163.666 37.9103 162.24 39.1332C160.813 40.3561 160.066 41.9867 160.066 43.889C160.066 45.2478 160.677 46.5387 161.764 47.6936C161.832 47.7616 162.104 48.0333 163.055 48.9845C158.707 51.1586 156.465 54.0121 156.465 57.409C156.465 59.719 157.416 61.6213 159.318 63.0481C161.153 64.4748 163.531 65.1542 166.384 65.1542C169.645 65.1542 172.431 64.3389 174.537 62.7084C175.284 63.9313 175.488 64.3389 175.624 64.4748L175.828 64.7466H176.167H179.361H182.282H184.32C185.543 64.7466 185.611 63.9313 185.611 63.7275C185.611 63.3878 185.475 62.5725 183.913 62.5725C181.806 62.5046 181.059 62.3007 180.855 62.1649C180.651 62.029 180.108 61.6213 179.225 60.0587C178.885 59.5152 178.613 59.1075 178.409 58.7679C179.836 56.7976 180.787 54.6235 181.399 52.3815L181.806 50.7509C181.874 50.4112 181.942 50.2074 182.01 50.0715C182.146 50.0036 182.418 49.9357 183.029 49.9357C184.66 49.8677 185.883 49.7318 185.883 48.7807C185.883 48.5089 185.747 47.6257 184.32 47.6257H181.671C178.477 47.6257 176.711 47.6257 176.167 47.6936C175.012 47.7616 174.741 48.3051 174.741 48.7127C174.741 49.7998 176.371 49.7998 177.254 49.7998C177.73 49.7998 178.07 49.7998 178.342 49.7318H178.545H178.613C178.613 49.7998 178.613 49.8677 178.613 50.0036C178.613 51.9739 177.934 54.08 176.575 56.3899C174.333 53.7403 172.499 51.5662 171.072 50.0715L169.849 48.7807C173.246 47.3539 174.945 45.3837 174.945 42.9378C174.945 41.3073 174.265 39.9485 172.838 38.8614C171.548 37.7744 169.781 37.2988 167.743 37.2988ZM168.151 47.0142C165.841 45.1799 164.686 43.4814 164.686 42.0546C164.686 41.2393 164.957 40.6279 165.433 40.1523C165.976 39.6767 166.588 39.405 167.403 39.405C168.151 39.405 168.694 39.7447 169.17 40.4241C169.713 41.1714 169.985 42.1226 169.985 43.2775C169.985 45.1119 169.373 46.3348 168.151 47.0142ZM168.083 62.4366C166.452 62.4366 165.093 61.8252 164.006 60.6022C162.919 59.3793 162.376 57.8167 162.376 55.9144C162.376 53.8082 163.191 52.1777 164.889 50.8189C168.762 54.7594 171.548 58.0205 173.246 60.5343C171.751 61.8252 170.053 62.4366 168.083 62.4366Z" fill="white"/>
<path d="M90.2493 84.5909H91.859V91.3016H99.9944V84.5909H101.604V100.59H99.9944V92.8677H91.859V100.59H90.2493V84.5909Z" fill="white"/>
<path d="M113.122 84.1885C115.544 84.1885 117.57 84.9969 119.202 86.6139C120.833 88.2308 121.649 90.2212 121.649 92.585C121.649 94.927 120.833 96.9137 119.202 98.5452C117.578 100.177 115.595 100.992 113.253 100.992C110.882 100.992 108.88 100.18 107.249 98.556C105.617 96.9318 104.802 94.9669 104.802 92.6611C104.802 91.1239 105.172 89.6991 105.911 88.3867C106.658 87.0743 107.673 86.0483 108.956 85.3087C110.24 84.5619 111.628 84.1885 113.122 84.1885ZM113.198 85.7547C112.016 85.7547 110.896 86.0628 109.837 86.6791C108.779 87.2955 107.952 88.1257 107.358 89.1698C106.763 90.2139 106.466 91.3777 106.466 92.6611C106.466 94.5608 107.122 96.1669 108.434 97.4793C109.754 98.7844 111.342 99.437 113.198 99.437C114.438 99.437 115.584 99.1361 116.635 98.5343C117.694 97.9325 118.517 97.1095 119.104 96.0654C119.699 95.0212 119.996 93.8611 119.996 92.585C119.996 91.3161 119.699 90.1704 119.104 89.1481C118.517 88.1184 117.686 87.2955 116.613 86.6791C115.54 86.0628 114.402 85.7547 113.198 85.7547Z" fill="white"/>
<path d="M124.858 84.5909H126.467V99.0455H132.612V100.59H124.858V84.5909Z" fill="white"/>
<path d="M134.918 84.5909H136.517V100.59H134.918V84.5909Z" fill="white"/>
<path d="M138.54 97.6098L139.899 96.7941C140.857 98.556 141.962 99.437 143.217 99.437C143.753 99.437 144.257 99.3138 144.729 99.0672C145.2 98.8134 145.559 98.4763 145.805 98.0557C146.052 97.6352 146.175 97.1893 146.175 96.7179C146.175 96.1814 145.994 95.6557 145.631 95.1409C145.131 94.4303 144.217 93.5747 142.89 92.5741C141.556 91.5662 140.726 90.8375 140.4 90.388C139.834 89.6339 139.551 88.8181 139.551 87.9408C139.551 87.2447 139.718 86.6103 140.052 86.0374C140.385 85.4646 140.853 85.0151 141.455 84.6888C142.064 84.3552 142.724 84.1885 143.434 84.1885C144.188 84.1885 144.892 84.377 145.544 84.754C146.204 85.1238 146.9 85.809 147.632 86.8097L146.327 87.7994C145.726 87.0018 145.211 86.4761 144.783 86.2223C144.362 85.9686 143.902 85.8417 143.402 85.8417C142.756 85.8417 142.227 86.0374 141.814 86.429C141.408 86.8205 141.205 87.3027 141.205 87.8755C141.205 88.2236 141.277 88.5607 141.422 88.887C141.567 89.2133 141.832 89.5686 142.216 89.9529C142.426 90.1559 143.115 90.6889 144.283 91.5517C145.668 92.5741 146.617 93.4841 147.132 94.2817C147.647 95.0793 147.904 95.8805 147.904 96.6853C147.904 97.8455 147.462 98.8533 146.577 99.7089C145.7 100.565 144.631 100.992 143.369 100.992C142.397 100.992 141.516 100.735 140.726 100.22C139.936 99.698 139.207 98.8279 138.54 97.6098Z" fill="white"/>
<path d="M149.699 86.1462V84.5909H158.476V86.1462H154.909V100.59H153.277V86.1462H149.699Z" fill="white"/>
<path d="M160.543 84.5909H162.141V100.59H160.543V84.5909Z" fill="white"/>
<path d="M180.718 87.5601L179.456 88.5281C178.76 87.6218 177.923 86.9365 176.944 86.4725C175.972 86.0012 174.903 85.7655 173.736 85.7655C172.459 85.7655 171.278 86.0737 170.19 86.69C169.102 87.2991 168.258 88.1221 167.656 89.1589C167.061 90.1886 166.764 91.3487 166.764 92.6393C166.764 94.5898 167.431 96.2176 168.765 97.5228C170.107 98.8279 171.796 99.4805 173.833 99.4805C176.074 99.4805 177.948 98.6032 179.456 96.8485L180.718 97.8056C179.921 98.8207 178.924 99.6074 177.727 100.166C176.538 100.717 175.207 100.992 173.736 100.992C170.937 100.992 168.729 100.061 167.112 98.1971C165.756 96.6237 165.078 94.724 165.078 92.498C165.078 90.1559 165.897 88.1873 167.536 86.5921C169.182 84.9897 171.241 84.1885 173.714 84.1885C175.207 84.1885 176.556 84.4858 177.76 85.0803C178.963 85.6677 179.95 86.4942 180.718 87.5601Z" fill="white"/>
<path d="M190.104 84.5909H193.291C195.118 84.5909 196.351 84.6707 196.989 84.8302C197.903 85.055 198.649 85.519 199.23 86.2223C199.81 86.9184 200.1 87.7958 200.1 88.8544C200.1 89.9203 199.817 90.8013 199.251 91.4973C198.686 92.1862 197.906 92.6502 196.913 92.8895C196.188 93.0635 194.832 93.1505 192.845 93.1505H191.703V100.59H190.104V84.5909ZM191.703 86.1462V91.5843L194.411 91.617C195.506 91.617 196.307 91.5191 196.815 91.3233C197.323 91.1203 197.721 90.7976 198.011 90.3553C198.301 89.9058 198.446 89.4055 198.446 88.8544C198.446 88.3178 198.301 87.8284 198.011 87.3861C197.721 86.9365 197.337 86.6175 196.859 86.429C196.387 86.2405 195.611 86.1462 194.531 86.1462H191.703Z" fill="white"/>
<path d="M203.308 84.5909H212.477V86.168H204.907V91.171H212.412V92.7372H204.907V99.0128H212.412V100.59H203.308V84.5909Z" fill="white"/>
<path d="M213.651 86.1462V84.5909H222.429V86.1462H218.861V100.59H217.23V86.1462H213.651Z" fill="white"/>
<path d="M230.901 84.5909H238.917V86.168H232.489V91.171H238.917V92.7481H232.489V100.59H230.901V84.5909Z" fill="white"/>
<path d="M249.337 84.1885C251.758 84.1885 253.785 84.9969 255.416 86.6139C257.048 88.2308 257.864 90.2212 257.864 92.585C257.864 94.927 257.048 96.9137 255.416 98.5452C253.792 100.177 251.809 100.992 249.467 100.992C247.096 100.992 245.095 100.18 243.463 98.556C241.832 96.9318 241.016 94.9669 241.016 92.6611C241.016 91.1239 241.386 89.6991 242.126 88.3867C242.872 87.0743 243.888 86.0483 245.171 85.3087C246.454 84.5619 247.843 84.1885 249.337 84.1885ZM249.413 85.7547C248.231 85.7547 247.111 86.0628 246.052 86.6791C244.993 87.2955 244.167 88.1257 243.572 89.1698C242.978 90.2139 242.68 91.3777 242.68 92.6611C242.68 94.5608 243.336 96.1669 244.649 97.4793C245.969 98.7844 247.556 99.437 249.413 99.437C250.653 99.437 251.798 99.1361 252.85 98.5343C253.908 97.9325 254.731 97.1095 255.318 96.0654C255.913 95.0212 256.21 93.8611 256.21 92.585C256.21 91.3161 255.913 90.1704 255.318 89.1481C254.731 88.1184 253.901 87.2955 252.828 86.6791C251.755 86.0628 250.616 85.7547 249.413 85.7547Z" fill="white"/>
<path d="M268.696 84.1885C271.118 84.1885 273.145 84.9969 274.776 86.6139C276.408 88.2308 277.223 90.2212 277.223 92.585C277.223 94.927 276.408 96.9137 274.776 98.5452C273.152 100.177 271.169 100.992 268.827 100.992C266.456 100.992 264.455 100.18 262.823 98.556C261.192 96.9318 260.376 94.9669 260.376 92.6611C260.376 91.1239 260.746 89.6991 261.485 88.3867C262.232 87.0743 263.247 86.0483 264.531 85.3087C265.814 84.5619 267.203 84.1885 268.696 84.1885ZM268.772 85.7547C267.591 85.7547 266.47 86.0628 265.412 86.6791C264.353 87.2955 263.526 88.1257 262.932 89.1698C262.337 90.2139 262.04 91.3777 262.04 92.6611C262.04 94.5608 262.696 96.1669 264.009 97.4793C265.328 98.7844 266.916 99.437 268.772 99.437C270.012 99.437 271.158 99.1361 272.209 98.5343C273.268 97.9325 274.091 97.1095 274.678 96.0654C275.273 95.0212 275.57 93.8611 275.57 92.585C275.57 91.3161 275.273 90.1704 274.678 89.1481C274.091 88.1184 273.261 87.2955 272.188 86.6791C271.114 86.0628 269.976 85.7547 268.772 85.7547Z" fill="white"/>
<path d="M280.432 100.59V84.5909H283.749C286.142 84.5909 287.878 84.783 288.959 85.1673C290.51 85.7112 291.721 86.6538 292.591 87.9952C293.469 89.3366 293.908 90.9354 293.908 92.7916C293.908 94.394 293.559 95.8043 292.863 97.0225C292.175 98.2406 291.275 99.1397 290.166 99.7198C289.064 100.3 287.516 100.59 285.522 100.59H280.432ZM281.965 99.0781H283.814C286.026 99.0781 287.559 98.9403 288.415 98.6648C289.619 98.2733 290.565 97.5699 291.254 96.5548C291.943 95.5324 292.287 94.2853 292.287 92.8134C292.287 91.2689 291.914 89.9493 291.167 88.8544C290.42 87.7595 289.379 87.0091 288.045 86.603C287.045 86.2985 285.395 86.1462 283.097 86.1462H281.965V99.0781Z" fill="white"/>
<defs>
<linearGradient id="paint0_linear_200_8440" x1="403.906" y1="104.628" x2="81.8147" y2="-112.721" gradientUnits="userSpaceOnUse">
<stop stop-color="#957E47"/>
<stop offset="0.131433" stop-color="#8E7434"/>
<stop offset="0.211538" stop-color="#E6C269"/>
<stop offset="0.324639" stop-color="#8D753A"/>
<stop offset="0.417946" stop-color="#8D753A"/>
<stop offset="0.451118" stop-color="#C3A355"/>
<stop offset="0.486125" stop-color="#8E7434"/>
<stop offset="0.687638" stop-color="#8D753A"/>
<stop offset="0.787909" stop-color="#E0C27A"/>
<stop offset="0.866976" stop-color="#8E7434"/>
<stop offset="1" stop-color="#756130"/>
</linearGradient>
<radialGradient id="paint1_radial_200_8440" cx="0" cy="0" r="1" gradientUnits="userSpaceOnUse" gradientTransform="translate(256.136 -6.11449) rotate(121.551) scale(68.1655 23.6941)">
<stop stop-color="white"/>
<stop offset="0.31117" stop-color="white" stop-opacity="0.782584"/>
<stop offset="1" stop-color="#EDBC45" stop-opacity="0"/>
</radialGradient>
<linearGradient id="paint2_linear_200_8440" x1="403.906" y1="104.628" x2="81.8147" y2="-112.721" gradientUnits="userSpaceOnUse">
<stop stop-color="#957E47"/>
<stop offset="0.131433" stop-color="#8E7434"/>
<stop offset="0.211538" stop-color="#E6C269"/>
<stop offset="0.324639" stop-color="#8D753A"/>
<stop offset="0.417946" stop-color="#8D753A"/>
<stop offset="0.451118" stop-color="#C3A355"/>
<stop offset="0.486125" stop-color="#8E7434"/>
<stop offset="0.687638" stop-color="#8D753A"/>
<stop offset="0.787909" stop-color="#E0C27A"/>
<stop offset="0.866976" stop-color="#8E7434"/>
<stop offset="1" stop-color="#756130"/>
</linearGradient>
<radialGradient id="paint3_radial_200_8440" cx="0" cy="0" r="1" gradientUnits="userSpaceOnUse" gradientTransform="translate(256.136 -6.11449) rotate(121.551) scale(68.1655 23.6941)">
<stop stop-color="white"/>
<stop offset="0.31117" stop-color="white" stop-opacity="0.782584"/>
<stop offset="1" stop-color="#EDBC45" stop-opacity="0"/>
</radialGradient>
<linearGradient id="paint4_linear_200_8440" x1="403.906" y1="104.628" x2="81.8147" y2="-112.721" gradientUnits="userSpaceOnUse">
<stop stop-color="#957E47"/>
<stop offset="0.131433" stop-color="#8E7434"/>
<stop offset="0.211538" stop-color="#E6C269"/>
<stop offset="0.324639" stop-color="#8D753A"/>
<stop offset="0.417946" stop-color="#8D753A"/>
<stop offset="0.451118" stop-color="#C3A355"/>
<stop offset="0.486125" stop-color="#8E7434"/>
<stop offset="0.687638" stop-color="#8D753A"/>
<stop offset="0.787909" stop-color="#E0C27A"/>
<stop offset="0.866976" stop-color="#8E7434"/>
<stop offset="1" stop-color="#756130"/>
</linearGradient>
<radialGradient id="paint5_radial_200_8440" cx="0" cy="0" r="1" gradientUnits="userSpaceOnUse" gradientTransform="translate(256.136 -6.11449) rotate(121.551) scale(68.1655 23.6941)">
<stop stop-color="white"/>
<stop offset="0.31117" stop-color="white" stop-opacity="0.782584"/>
<stop offset="1" stop-color="#EDBC45" stop-opacity="0"/>
</radialGradient>
<linearGradient id="paint6_linear_200_8440" x1="403.906" y1="104.628" x2="81.8147" y2="-112.721" gradientUnits="userSpaceOnUse">
<stop stop-color="#957E47"/>
<stop offset="0.131433" stop-color="#8E7434"/>
<stop offset="0.211538" stop-color="#E6C269"/>
<stop offset="0.324639" stop-color="#8D753A"/>
<stop offset="0.417946" stop-color="#8D753A"/>
<stop offset="0.451118" stop-color="#C3A355"/>
<stop offset="0.486125" stop-color="#8E7434"/>
<stop offset="0.687638" stop-color="#8D753A"/>
<stop offset="0.787909" stop-color="#E0C27A"/>
<stop offset="0.866976" stop-color="#8E7434"/>
<stop offset="1" stop-color="#756130"/>
</linearGradient>
<radialGradient id="paint7_radial_200_8440" cx="0" cy="0" r="1" gradientUnits="userSpaceOnUse" gradientTransform="translate(256.136 -6.11449) rotate(121.551) scale(68.1655 23.6941)">
<stop stop-color="white"/>
<stop offset="0.31117" stop-color="white" stop-opacity="0.782584"/>
<stop offset="1" stop-color="#EDBC45" stop-opacity="0"/>
</radialGradient>
<linearGradient id="paint8_linear_200_8440" x1="403.906" y1="104.628" x2="81.8147" y2="-112.721" gradientUnits="userSpaceOnUse">
<stop stop-color="#957E47"/>
<stop offset="0.131433" stop-color="#8E7434"/>
<stop offset="0.211538" stop-color="#E6C269"/>
<stop offset="0.324639" stop-color="#8D753A"/>
<stop offset="0.417946" stop-color="#8D753A"/>
<stop offset="0.451118" stop-color="#C3A355"/>
<stop offset="0.486125" stop-color="#8E7434"/>
<stop offset="0.687638" stop-color="#8D753A"/>
<stop offset="0.787909" stop-color="#E0C27A"/>
<stop offset="0.866976" stop-color="#8E7434"/>
<stop offset="1" stop-color="#756130"/>
</linearGradient>
<radialGradient id="paint9_radial_200_8440" cx="0" cy="0" r="1" gradientUnits="userSpaceOnUse" gradientTransform="translate(256.136 -6.11449) rotate(121.551) scale(68.1655 23.6941)">
<stop stop-color="white"/>
<stop offset="0.31117" stop-color="white" stop-opacity="0.782584"/>
<stop offset="1" stop-color="#EDBC45" stop-opacity="0"/>
</radialGradient>
<linearGradient id="paint10_linear_200_8440" x1="403.906" y1="104.628" x2="81.8147" y2="-112.721" gradientUnits="userSpaceOnUse">
<stop stop-color="#957E47"/>
<stop offset="0.131433" stop-color="#8E7434"/>
<stop offset="0.211538" stop-color="#E6C269"/>
<stop offset="0.324639" stop-color="#8D753A"/>
<stop offset="0.417946" stop-color="#8D753A"/>
<stop offset="0.451118" stop-color="#C3A355"/>
<stop offset="0.486125" stop-color="#8E7434"/>
<stop offset="0.687638" stop-color="#8D753A"/>
<stop offset="0.787909" stop-color="#E0C27A"/>
<stop offset="0.866976" stop-color="#8E7434"/>
<stop offset="1" stop-color="#756130"/>
</linearGradient>
<radialGradient id="paint11_radial_200_8440" cx="0" cy="0" r="1" gradientUnits="userSpaceOnUse" gradientTransform="translate(256.136 -6.11449) rotate(121.551) scale(68.1655 23.6941)">
<stop stop-color="white"/>
<stop offset="0.31117" stop-color="white" stop-opacity="0.782584"/>
<stop offset="1" stop-color="#EDBC45" stop-opacity="0"/>
</radialGradient>
<linearGradient id="paint12_linear_200_8440" x1="403.906" y1="104.628" x2="81.8147" y2="-112.721" gradientUnits="userSpaceOnUse">
<stop stop-color="#957E47"/>
<stop offset="0.131433" stop-color="#8E7434"/>
<stop offset="0.211538" stop-color="#E6C269"/>
<stop offset="0.324639" stop-color="#8D753A"/>
<stop offset="0.417946" stop-color="#8D753A"/>
<stop offset="0.451118" stop-color="#C3A355"/>
<stop offset="0.486125" stop-color="#8E7434"/>
<stop offset="0.687638" stop-color="#8D753A"/>
<stop offset="0.787909" stop-color="#E0C27A"/>
<stop offset="0.866976" stop-color="#8E7434"/>
<stop offset="1" stop-color="#756130"/>
</linearGradient>
<radialGradient id="paint13_radial_200_8440" cx="0" cy="0" r="1" gradientUnits="userSpaceOnUse" gradientTransform="translate(256.136 -6.11449) rotate(121.551) scale(68.1655 23.6941)">
<stop stop-color="white"/>
<stop offset="0.31117" stop-color="white" stop-opacity="0.782584"/>
<stop offset="1" stop-color="#EDBC45" stop-opacity="0"/>
</radialGradient>
<linearGradient id="paint14_linear_200_8440" x1="403.906" y1="104.628" x2="81.8147" y2="-112.721" gradientUnits="userSpaceOnUse">
<stop stop-color="#957E47"/>
<stop offset="0.131433" stop-color="#8E7434"/>
<stop offset="0.211538" stop-color="#E6C269"/>
<stop offset="0.324639" stop-color="#8D753A"/>
<stop offset="0.417946" stop-color="#8D753A"/>
<stop offset="0.451118" stop-color="#C3A355"/>
<stop offset="0.486125" stop-color="#8E7434"/>
<stop offset="0.687638" stop-color="#8D753A"/>
<stop offset="0.787909" stop-color="#E0C27A"/>
<stop offset="0.866976" stop-color="#8E7434"/>
<stop offset="1" stop-color="#756130"/>
</linearGradient>
<radialGradient id="paint15_radial_200_8440" cx="0" cy="0" r="1" gradientUnits="userSpaceOnUse" gradientTransform="translate(256.136 -6.11449) rotate(121.551) scale(68.1655 23.6941)">
<stop stop-color="white"/>
<stop offset="0.31117" stop-color="white" stop-opacity="0.782584"/>
<stop offset="1" stop-color="#EDBC45" stop-opacity="0"/>
</radialGradient>
</defs>
</svg>
