<svg width="100%" height="100%" viewBox="0 0 120 120" fill="none" xmlns="http://www.w3.org/2000/svg">
<mask id="mask0_8_48" style="mask-type:alpha" maskUnits="userSpaceOnUse" x="26" y="16" width="78" height="83">
<rect x="26" y="16" width="78" height="83" fill="#C4C4C4"/>
</mask>
<g mask="url(#mask0_8_48)">
    <path fill-rule="evenodd" clip-rule="evenodd" d="M33.887 31.5C33.887 30.576 33.137 29.825 32.213 29.825H28.864C27.94 29.825 27.19 30.576 27.19 31.5V98.176H33.887V31.5Z" fill="#EEEFFF" stroke="#6171FF" stroke-width="1.64" stroke-miterlimit="1" stroke-linecap="round" stroke-linejoin="round">
        <animateTransform
            attributeType="xml"
            attributeName="transform"
            type="translate"
            begin="0s"
            dur="10s"
            values="0 0; 0 5; 0 0; 0 8; 0 0; 0 10; 0 0;"
            repeatCount="indefinite"
        />
    </path>
    <path fill-rule="evenodd" clip-rule="evenodd" d="M47.759 23.463C47.759 22.538 47.009 21.788 46.085 21.788H42.736C41.812 21.788 41.062 22.538 41.062 23.463V98.176H47.759V23.463Z" fill="#DEDFFE" stroke="#6171FF" stroke-width="1.64" stroke-miterlimit="1" stroke-linecap="round" stroke-linejoin="round">
        <animateTransform
            attributeType="xml"
            attributeName="transform"
            type="translate"
            begin="0s"
            dur="6s"
            values="0 0; 0 10; 0 0; 0 3; 0 0; 0 5; 0 0;"
            repeatCount="indefinite"
        />
    </path>
    <path fill-rule="evenodd" clip-rule="evenodd" d="M61.631 31.5C61.631 30.576 60.881 29.825 59.957 29.825H56.608C55.684 29.825 54.934 30.576 54.934 31.5V98.176H61.631V31.5Z" fill="#EEEFFF" stroke="#6171FF" stroke-width="1.64" stroke-miterlimit="1" stroke-linecap="round" stroke-linejoin="round">
        <animateTransform
            attributeType="xml"
            attributeName="transform"
            type="translate"
            begin="0s"
            dur="12s"
            values="0 0; 0 7; 0 0; 0 4; 0 0; 0 8; 0 0;"
            repeatCount="indefinite"
        />
    </path>
    <path fill-rule="evenodd" clip-rule="evenodd" d="M75.503 26.856C75.503 25.932 74.753 25.182 73.829 25.182H70.48C69.556 25.182 68.806 25.932 68.806 26.856V98.176H75.503V26.856Z" fill="#DEDFFE" stroke="#6171FF" stroke-width="1.64" stroke-miterlimit="1" stroke-linecap="round" stroke-linejoin="round">
        <animateTransform
            attributeType="xml"
            attributeName="transform"
            type="translate"
            begin="0s"
            dur="7s"
            values="0 0; 0 20; 0 2; 0 7; 0 0; 0 6; 0 0;"
            repeatCount="indefinite"
        />
    </path>
    <path fill-rule="evenodd" clip-rule="evenodd" d="M89.375 38.286C89.375 37.362 88.625 36.612 87.701 36.612H84.352C83.428 36.612 82.678 37.362 82.678 38.286V98.176H89.375V38.286Z" fill="#EEEFFF" stroke="#6171FF" stroke-width="1.64" stroke-miterlimit="1" stroke-linecap="round" stroke-linejoin="round">
        <animateTransform
            attributeType="xml"
            attributeName="transform"
            type="translate"
            begin="0s"
            dur="7s"
            values="0 0; 0 30; 0 2; 0 15; 0 10; 0 6; 0 0;"
            repeatCount="indefinite"
        />
    </path>
    <path fill-rule="evenodd" clip-rule="evenodd" d="M103.247 46.537C103.247 45.613 102.497 44.863 101.573 44.863H98.224C97.3 44.863 96.55 45.613 96.55 46.537V98.176H103.247V46.537Z" fill="#DEDFFE" stroke="#6171FF" stroke-width="1.64" stroke-miterlimit="1" stroke-linecap="round" stroke-linejoin="round">
        <animateTransform
            attributeType="xml"
            attributeName="transform"
            type="translate"
            begin="0s"
            dur="17s"
            values="0 0; 0 30; 0 2; 0 15; 0 10; 0 6; 0 0;"
            repeatCount="indefinite"
        />
    </path>
</g>
<path d="M19.908 15.566V98.176L103.247 98.1" stroke="#6171FF" stroke-width="1.64" stroke-miterlimit="1" stroke-linecap="round" stroke-linejoin="round"/>
<path d="M43.742 109.909C62.6163 109.909 77.917 94.6083 77.917 75.734C77.917 56.8597 62.6163 41.559 43.742 41.559C24.8677 41.559 9.56702 56.8597 9.56702 75.734C9.56702 94.6083 24.8677 109.909 43.742 109.909Z" fill="#DEDFFE" stroke="#6171FF" stroke-width="1.64" stroke-miterlimit="1" stroke-linecap="round" stroke-linejoin="round"/>
<path fill-rule="evenodd" clip-rule="evenodd" d="M43.742 41.559C62.604 41.559 77.918 56.872 77.918 75.734C77.918 94.596 62.604 109.91 43.742 109.91C24.88 109.91 9.56702 94.596 9.56702 75.734C9.56702 56.872 24.88 41.559 43.742 41.559ZM43.742 49.078C58.455 49.078 70.399 61.022 70.399 75.734C70.399 90.447 58.455 102.391 43.742 102.391C29.03 102.391 17.086 90.447 17.086 75.734C17.086 61.022 29.03 49.078 43.742 49.078Z" fill="#EEEFFF" stroke="#6171FF" stroke-width="1.64" stroke-miterlimit="1" stroke-linecap="round" stroke-linejoin="round"/>
<path d="M53.176 81.086C53.176 82.331 52.955 83.453 52.514 84.451C52.072 85.45 51.446 86.311 50.636 87.035C49.825 87.759 48.848 88.338 47.705 88.772C46.561 89.206 45.295 89.481 43.905 89.597L43.449 94.243C43.435 94.359 43.402 94.46 43.352 94.547C43.301 94.634 43.207 94.706 43.069 94.764C42.932 94.822 42.744 94.869 42.505 94.905C42.266 94.941 41.966 94.96 41.604 94.96C41.141 94.96 40.768 94.938 40.486 94.894C40.204 94.851 39.983 94.789 39.824 94.71C39.664 94.63 39.559 94.525 39.509 94.395C39.458 94.265 39.447 94.12 39.476 93.961L39.932 89.554C39.31 89.467 38.724 89.355 38.174 89.217C37.624 89.079 37.124 88.928 36.676 88.761C36.227 88.595 35.84 88.425 35.514 88.251C35.188 88.077 34.942 87.907 34.776 87.741C34.609 87.574 34.49 87.328 34.418 87.002C34.345 86.677 34.309 86.196 34.309 85.559C34.309 85.067 34.323 84.661 34.352 84.343C34.381 84.024 34.432 83.778 34.504 83.605C34.577 83.431 34.667 83.312 34.776 83.246C34.884 83.181 35.011 83.149 35.156 83.149C35.344 83.149 35.619 83.257 35.981 83.474C36.343 83.692 36.806 83.93 37.37 84.191C37.935 84.451 38.619 84.69 39.422 84.907C40.225 85.124 41.17 85.233 42.255 85.233C43.949 85.233 45.208 84.918 46.033 84.289C46.858 83.659 47.27 82.823 47.27 81.781C47.27 81.086 47.093 80.514 46.739 80.066C46.384 79.617 45.91 79.223 45.316 78.883C44.723 78.542 44.054 78.238 43.308 77.971C42.563 77.703 41.799 77.417 41.018 77.113C40.236 76.809 39.473 76.455 38.727 76.049C37.982 75.644 37.312 75.145 36.719 74.551C36.125 73.958 35.651 73.238 35.297 72.391C34.942 71.544 34.765 70.52 34.765 69.319C34.765 68.233 34.946 67.245 35.308 66.355C35.67 65.465 36.191 64.687 36.871 64.021C37.551 63.356 38.387 62.816 39.379 62.404C40.37 61.991 41.495 61.713 42.755 61.568L43.189 57.204C43.203 57.088 43.236 56.991 43.287 56.911C43.337 56.831 43.431 56.759 43.569 56.694C43.706 56.629 43.891 56.582 44.122 56.553C44.354 56.524 44.658 56.509 45.034 56.509C45.483 56.509 45.856 56.531 46.152 56.574C46.449 56.618 46.677 56.679 46.836 56.759C46.995 56.839 47.097 56.944 47.14 57.074C47.184 57.204 47.205 57.349 47.205 57.508L46.771 61.611C47.176 61.669 47.603 61.749 48.052 61.85C48.501 61.952 48.921 62.071 49.311 62.208C49.702 62.346 50.057 62.491 50.375 62.643C50.694 62.795 50.914 62.932 51.037 63.055C51.16 63.178 51.254 63.301 51.32 63.424C51.385 63.547 51.435 63.699 51.472 63.88C51.508 64.061 51.533 64.278 51.548 64.532C51.562 64.785 51.569 65.078 51.569 65.411C51.569 65.86 51.558 66.229 51.537 66.518C51.515 66.808 51.475 67.028 51.417 67.18C51.359 67.332 51.294 67.434 51.222 67.484C51.15 67.535 51.063 67.56 50.961 67.56C50.773 67.56 50.498 67.466 50.136 67.278C49.774 67.09 49.329 66.887 48.801 66.67C48.273 66.453 47.665 66.25 46.977 66.062C46.29 65.874 45.534 65.78 44.709 65.78C43.956 65.78 43.312 65.852 42.776 65.997C42.241 66.142 41.807 66.344 41.474 66.605C41.141 66.865 40.895 67.177 40.735 67.539C40.576 67.9 40.497 68.298 40.497 68.733C40.497 69.413 40.678 69.985 41.039 70.448C41.401 70.911 41.883 71.309 42.483 71.642C43.084 71.975 43.764 72.279 44.524 72.554C45.284 72.829 46.058 73.118 46.847 73.422C47.636 73.726 48.41 74.077 49.17 74.475C49.93 74.873 50.607 75.365 51.2 75.952C51.794 76.538 52.271 77.247 52.633 78.079C52.995 78.911 53.176 79.914 53.176 81.086Z" fill="#EEEFFF" stroke="#6171FF" stroke-width="1.64" stroke-miterlimit="2" stroke-linejoin="round" style=";transform-box: fill-box; transform-origin: 50% 50%;">
    <animateTransform
        attributeType="xml"
        attributeName="transform"
        type="rotate"
        begin="0s"
        dur="15s"
        values="0; -360;"
        repeatCount="indefinite"
    />
</path>
<path fill-rule="evenodd" clip-rule="evenodd" d="M99.25 18.491C99.383 18.303 99.613 18.212 99.834 18.26C100.055 18.308 100.226 18.485 100.27 18.712L101.098 22.981C101.119 23.086 101.158 23.187 101.215 23.278C101.272 23.368 101.345 23.447 101.43 23.51L104.875 26.047C105.058 26.182 105.144 26.415 105.095 26.642C105.046 26.868 104.871 27.045 104.649 27.092L100.464 27.981C100.361 28.003 100.262 28.045 100.172 28.104C100.083 28.163 100.005 28.238 99.943 28.326L97.427 31.872C97.293 32.06 97.064 32.151 96.843 32.103C96.621 32.056 96.45 31.878 96.406 31.652L95.578 27.383C95.558 27.277 95.518 27.176 95.461 27.086C95.404 26.995 95.331 26.916 95.246 26.853L91.801 24.316C91.618 24.182 91.532 23.948 91.581 23.722C91.63 23.495 91.805 23.318 92.027 23.271L96.212 22.382C96.316 22.36 96.415 22.319 96.504 22.26C96.593 22.201 96.671 22.125 96.733 22.037L99.25 18.491Z" fill="#EEEFFF" stroke="#6171FF" stroke-width="1.64" stroke-miterlimit="1.5" stroke-linecap="round" stroke-linejoin="round" style=";transform-box: fill-box; transform-origin: 50% 50%;">
    <animateTransform
        attributeType="xml"
        attributeName="transform"
        type="rotate"
        begin="0s"
        dur="10s"
        values="0; 360;"
        repeatCount="indefinite"
    />
</path>
</svg>
