<svg viewBox="0 0 32 38" fill="none" xmlns="http://www.w3.org/2000/svg">
<path d="M10 5.00002C9.46957 5.00002 8.96086 5.21073 8.58579 5.58581C8.21071 5.96088 8 6.46959 8 7.00002C8 7.53045 8.21071 8.03916 8.58579 8.41423C8.96086 8.78931 9.46957 9.00002 10 9.00002C10.5304 9.00002 11.0391 8.78931 11.4142 8.41423C11.7893 8.03916 12 7.53045 12 7.00002C12 6.46959 11.7893 5.96088 11.4142 5.58581C11.0391 5.21073 10.5304 5.00002 10 5.00002ZM4.34 5.00002C4.7532 3.82895 5.51948 2.81489 6.5332 2.0976C7.54692 1.38031 8.75817 0.995117 10 0.995117C11.2418 0.995117 12.4531 1.38031 13.4668 2.0976C14.4805 2.81489 15.2468 3.82895 15.66 5.00002H30C30.5304 5.00002 31.0391 5.21073 31.4142 5.58581C31.7893 5.96088 32 6.46959 32 7.00002C32 7.53045 31.7893 8.03916 31.4142 8.41423C31.0391 8.78931 30.5304 9.00002 30 9.00002H15.66C15.2468 10.1711 14.4805 11.1852 13.4668 11.9024C12.4531 12.6197 11.2418 13.0049 10 13.0049C8.75817 13.0049 7.54692 12.6197 6.5332 11.9024C5.51948 11.1852 4.7532 10.1711 4.34 9.00002H2C1.46957 9.00002 0.96086 8.78931 0.585787 8.41423C0.210714 8.03916 0 7.53045 0 7.00002C0 6.46959 0.210714 5.96088 0.585787 5.58581C0.96086 5.21073 1.46957 5.00002 2 5.00002H4.34ZM22 17C21.4696 17 20.9609 17.2107 20.5858 17.5858C20.2107 17.9609 20 18.4696 20 19C20 19.5305 20.2107 20.0392 20.5858 20.4142C20.9609 20.7893 21.4696 21 22 21C22.5304 21 23.0391 20.7893 23.4142 20.4142C23.7893 20.0392 24 19.5305 24 19C24 18.4696 23.7893 17.9609 23.4142 17.5858C23.0391 17.2107 22.5304 17 22 17ZM16.34 17C16.7532 15.829 17.5195 14.8149 18.5332 14.0976C19.5469 13.3803 20.7582 12.9951 22 12.9951C23.2418 12.9951 24.4531 13.3803 25.4668 14.0976C26.4805 14.8149 27.2468 15.829 27.66 17H30C30.5304 17 31.0391 17.2107 31.4142 17.5858C31.7893 17.9609 32 18.4696 32 19C32 19.5305 31.7893 20.0392 31.4142 20.4142C31.0391 20.7893 30.5304 21 30 21H27.66C27.2468 22.1711 26.4805 23.1852 25.4668 23.9024C24.4531 24.6197 23.2418 25.0049 22 25.0049C20.7582 25.0049 19.5469 24.6197 18.5332 23.9024C17.5195 23.1852 16.7532 22.1711 16.34 21H2C1.46957 21 0.96086 20.7893 0.585787 20.4142C0.210714 20.0392 0 19.5305 0 19C0 18.4696 0.210714 17.9609 0.585787 17.5858C0.96086 17.2107 1.46957 17 2 17H16.34ZM10 29C9.46957 29 8.96086 29.2107 8.58579 29.5858C8.21071 29.9609 8 30.4696 8 31C8 31.5305 8.21071 32.0392 8.58579 32.4142C8.96086 32.7893 9.46957 33 10 33C10.5304 33 11.0391 32.7893 11.4142 32.4142C11.7893 32.0392 12 31.5305 12 31C12 30.4696 11.7893 29.9609 11.4142 29.5858C11.0391 29.2107 10.5304 29 10 29ZM4.34 29C4.7532 27.829 5.51948 26.8149 6.5332 26.0976C7.54692 25.3803 8.75817 24.9951 10 24.9951C11.2418 24.9951 12.4531 25.3803 13.4668 26.0976C14.4805 26.8149 15.2468 27.829 15.66 29H30C30.5304 29 31.0391 29.2107 31.4142 29.5858C31.7893 29.9609 32 30.4696 32 31C32 31.5305 31.7893 32.0392 31.4142 32.4142C31.0391 32.7893 30.5304 33 30 33H15.66C15.2468 34.1711 14.4805 35.1852 13.4668 35.9024C12.4531 36.6197 11.2418 37.0049 10 37.0049C8.75817 37.0049 7.54692 36.6197 6.5332 35.9024C5.51948 35.1852 4.7532 34.1711 4.34 33H2C1.46957 33 0.96086 32.7893 0.585787 32.4142C0.210714 32.0392 0 31.5305 0 31C0 30.4696 0.210714 29.9609 0.585787 29.5858C0.96086 29.2107 1.46957 29 2 29H4.34Z" fill="currentColor"/>
</svg>
