<svg viewBox="0 0 24 14" fill="none" xmlns="http://www.w3.org/2000/svg">
<path d="M20.116 8.7302C20.8618 9.45859 21.6507 10.1441 22.3202 10.9478C22.6168 11.3033 22.8963 11.6709 23.1091 12.0844C23.4129 12.674 23.1386 13.3205 22.6109 13.3556L19.333 13.3549C18.4864 13.425 17.8127 13.0835 17.2447 12.5047C16.7913 12.0435 16.3706 11.5508 15.9339 11.0738C15.7555 10.878 15.5676 10.6937 15.3437 10.5487C14.8968 10.258 14.5086 10.3471 14.2526 10.8139C13.9917 11.2889 13.9321 11.8153 13.9072 12.344C13.8715 13.1169 13.6384 13.3189 12.8629 13.3552C11.2058 13.4328 9.63344 13.1814 8.17208 12.346C6.88291 11.6091 5.8851 10.569 5.01562 9.39148C3.32248 7.09599 2.02579 4.57659 0.860693 1.98483C0.598473 1.40114 0.79031 1.08883 1.43424 1.07672C2.50407 1.0561 3.5739 1.05872 4.64373 1.07574C5.07913 1.08261 5.36721 1.33174 5.53449 1.74258C6.11262 3.16499 6.82137 4.51832 7.70951 5.77344C7.9462 6.10768 8.18779 6.44094 8.53185 6.67697C8.9116 6.93755 9.20099 6.85145 9.38006 6.42751C9.49464 6.15809 9.54407 5.87001 9.56895 5.58127C9.65406 4.5923 9.66421 3.60366 9.5169 2.61861C9.42523 2.00218 9.07856 1.60411 8.46409 1.48756C8.15113 1.42831 8.19696 1.31242 8.34918 1.13368C8.61337 0.824648 8.86086 0.633468 9.35551 0.633468L13.059 0.632812C13.6427 0.747391 13.7736 1.00928 13.8529 1.59723L13.8561 5.71287C13.8493 5.94039 13.9704 6.61477 14.3789 6.76372C14.7063 6.87175 14.9224 6.6092 15.1181 6.40198C16.0063 5.45949 16.6391 4.3471 17.2057 3.19576C17.4558 2.68801 17.6716 2.16259 17.8811 1.63619C18.0369 1.24695 18.2792 1.05544 18.7185 1.06199L22.2848 1.06625C22.3899 1.06625 22.4966 1.06723 22.6007 1.08523C23.2018 1.18802 23.3664 1.44664 23.1805 2.03296C22.8878 2.95416 22.3192 3.72151 21.7633 4.49082C21.1675 5.31447 20.5321 6.10931 19.9422 6.93657C19.4001 7.69278 19.443 8.07351 20.116 8.7302Z" fill="currentColor"/>
</svg>
