<svg width="101" height="100" viewBox="0 0 101 100" fill="none" xmlns="http://www.w3.org/2000/svg">
<path fill-rule="evenodd" clip-rule="evenodd" d="M52.0539 0.856355C52.6291 0.734284 53.4359 0.573964 53.8468 0.500304C54.2577 0.426494 55.636 0.390635 56.9098 0.420368C59.675 0.485213 61.3599 0.859492 63.5437 1.89403C66.3748 3.23501 67.8135 4.46781 70.5486 7.89654L72.3365 10.1377L78.7173 10.0824C84.2151 10.0348 85.2102 10.0599 85.908 10.264C86.8839 10.5497 87.7298 11.2175 88.1788 12.0572C88.4945 12.6474 88.5128 12.8759 88.5566 16.7339C88.6082 21.2768 88.5273 21.872 87.6625 23.3188C87.1133 24.2378 86.0174 25.1951 85.0261 25.6215C84.2712 25.9464 83.3967 26.0967 72.6436 27.7508L64.5458 28.9965L64.127 29.4862C63.4157 30.3177 61.9903 32.3485 61.3554 33.4349C59.9883 35.7744 58.1844 39.5473 58.295 39.8356C58.3525 39.9855 59.2563 40.0987 61.8618 40.2828C66.8463 40.6347 68.308 41.156 70.5167 43.3694C72.3231 45.1798 73.0174 46.6592 73.4223 49.56C73.5502 50.4765 73.6848 51.3672 73.7213 51.5394C73.783 51.8308 73.9355 51.8628 75.9283 52.001C77.9247 52.1393 78.1316 52.1828 78.9994 52.6452C80.7257 53.5653 81.639 55.0692 81.631 56.9787C81.6272 57.9076 81.4791 58.5838 80.7656 60.9311C79.7625 64.2319 79.4317 64.9034 78.2578 66.0232C76.5552 67.6472 76.1588 67.7483 68.2652 68.5718L64.3057 68.9849L63.8201 69.4663C63.0977 70.1826 63.16 70.6348 64.3056 72.9881C64.8397 74.0852 65.2768 75.1709 65.2768 75.4005C65.2771 76.2602 64.1276 76.8612 63.4575 76.3517C63.3198 76.2469 62.6977 75.1322 62.0754 73.8746C61.0082 71.7176 60.9441 71.5316 60.9454 70.596C60.9481 68.7741 62.0623 67.2278 63.704 66.7679C64.1172 66.6521 66.7412 66.317 69.5352 66.0229C74.3346 65.5181 74.6663 65.4637 75.5407 65.0384C76.4249 64.6083 77.0726 63.9797 77.5316 63.1059C77.8253 62.547 79.3222 57.4175 79.3184 56.983C79.3139 56.468 78.8403 55.4803 78.4076 55.0837C77.8549 54.577 77.4443 54.4806 75.36 54.3678C73.8962 54.2885 73.2642 54.1896 72.7859 53.9644C71.6686 53.4385 71.4725 52.9675 71.0324 49.7532C70.6438 46.9147 69.3276 44.8885 67.1075 43.7107C65.8843 43.0617 64.7263 42.8458 61.3922 42.6447C59.8719 42.553 58.4202 42.4451 58.1662 42.4048C57.7422 42.3375 57.6809 42.3836 57.4191 42.9655C57.0074 43.8807 55.5779 45.3428 54.6224 45.8263C53.7224 46.2817 52.4308 46.6647 51.7857 46.6674C51.2291 46.6698 50.6345 46.0652 50.6345 45.4972C50.6345 44.783 51.0422 44.4405 52.2033 44.18C53.1857 43.9594 53.314 43.8804 54.3188 42.8792C55.7238 41.4793 55.8061 41.182 56.0166 36.7537C56.1058 34.875 56.1575 33.3164 56.1314 33.2903C56.0318 33.1906 52.2922 36.5285 51.001 37.8695C45.4579 43.6258 41.5325 51.2349 40.1064 58.9878C39.4128 62.7587 39.2813 65.272 39.5005 70.5752C39.6156 73.3588 39.4413 75.4474 39.0429 76.0638C38.9476 76.2112 38.8163 76.324 38.6654 76.4024C38.4557 76.5284 38.1607 76.5846 37.7474 76.586C37.1717 76.5878 36.2249 76.7251 35.4852 76.9139C31.2613 77.9922 28.0696 81.5949 27.514 85.9114C27.4136 86.6916 27.4137 87.9134 27.5143 88.6921C28.0722 93.013 31.2596 96.6109 35.4852 97.6897C37.1996 98.1273 39.0733 98.1296 40.799 97.6959C44.562 96.7503 47.5989 93.7135 48.5444 89.9506C48.7282 89.2193 48.8643 88.2689 48.8661 87.7046C48.8668 87.4966 48.8903 87.2269 48.9183 87.1053C49.0913 86.3543 50.0265 86.103 50.5269 86.673C50.7733 86.9536 50.8088 87.1317 50.771 87.8961C50.7098 89.1329 50.4322 90.5184 50.0207 91.6412C49.8033 92.2343 49.1964 93.4771 48.8847 93.9676C47.8768 95.5532 46.4017 97.0282 44.8161 98.0361C44.3256 98.3479 43.0828 98.9548 42.4897 99.1722C41.8265 99.4153 40.813 99.6743 40.0266 99.8018C39.064 99.9579 37.2365 99.9579 36.2739 99.8018C34.9132 99.5812 33.8132 99.2322 32.5954 98.6349C31.265 97.9822 30.3219 97.3036 29.2351 96.2169C28.1484 95.1301 27.4697 94.187 26.8171 92.8566C26.2197 91.6388 25.8707 90.5388 25.6501 89.1781C25.4941 88.2155 25.4941 86.388 25.6501 85.4255C25.7776 84.6391 26.0367 83.6256 26.2798 82.9623C26.4972 82.3692 27.1041 81.1264 27.4158 80.636C28.1377 79.5004 29.3869 78.1083 30.3488 77.3675C32.3179 75.8511 34.6209 74.9313 36.9901 74.7149C37.0059 74.5675 37.0253 74.4007 37.0483 74.2109C37.1771 73.1492 37.1889 71.8714 37.0909 69.604C36.8139 63.1992 37.3978 58.5097 39.1388 53.1585C41.8118 44.9423 46.3248 38.391 53.5244 32.2753C55.9332 30.2291 56.3354 30.0315 57.3247 30.408C58.145 30.7202 58.5518 31.4205 58.5599 32.5344L58.5666 33.4461L58.8961 32.8676C59.0773 32.5494 59.7146 31.5478 60.3122 30.6421C60.9097 29.7362 61.3804 28.9842 61.3581 28.9711C61.3357 28.9579 60.9477 28.8614 60.4957 28.7565C58.4774 28.2889 54.5598 25.8108 54.1099 24.7174C53.7793 23.9139 54.3016 23.1516 55.1829 23.1516C55.5527 23.1516 55.8809 23.334 56.5511 23.9118C58.3171 25.4346 60.0693 26.3114 62.0281 26.6525C62.942 26.8116 63.5407 26.7357 73.2866 25.2265C78.948 24.3497 83.7817 23.5478 84.0282 23.4444C85.3726 22.881 86.0661 21.7559 86.1636 19.9796L86.2303 18.7648L85.5028 18.531C85.1026 18.4024 83.5683 17.9203 82.0932 17.4599C80.6179 16.9992 79.1713 16.4878 78.8781 16.323C77.9007 15.7736 77.3904 14.6887 77.3829 13.1435L77.3793 12.4139L74.6526 12.5135C73.1528 12.5682 71.7241 12.5561 71.4775 12.4867C71.1387 12.391 70.5743 11.7792 69.1646 9.97906C68.1391 8.6693 66.9624 7.2584 66.5499 6.84363C64.0154 4.29524 60.2946 2.7418 56.7253 2.7418H55.6836L56.1472 3.26997C56.7012 3.90079 56.7338 4.37533 56.261 4.92487C55.7348 5.53671 55.1805 5.46738 54.0986 4.65398C52.4032 3.37949 50.4635 3.17718 48.6174 4.08203C47.8394 4.46348 46.5044 5.74156 38.5147 13.7544C30.0813 22.2123 28.8826 23.3896 28.5026 24.7891C28.4303 25.0553 28.3876 25.3297 28.3304 25.6637C28.0003 27.5908 28.6684 29.6512 30.0815 31.0642C30.981 31.9638 32.1049 32.5447 33.5292 32.8464C36.8649 33.553 40.4509 32.5183 42.783 30.1764C44.8121 28.1385 47.9857 22.8876 49.4305 19.1772C50.3001 16.9441 50.4994 16.5895 50.9808 16.421C51.5042 16.2377 52.1151 16.5393 52.3935 17.1184C52.5602 17.4651 52.5274 17.6768 52.1295 18.8252C50.6655 23.0503 47.1013 29.1989 44.6732 31.6881C41.6876 34.7487 37.3236 36.0579 33.048 35.1754C32.2915 35.0195 31.271 34.6876 30.78 34.4381L29.8873 33.9843L28.7054 35.4335C23.7612 41.4959 18.8451 49.6163 15.5262 57.2028C15.0229 58.3533 14.4725 59.4121 14.3032 59.556C14.1338 59.6998 13.7979 59.8175 13.5568 59.8175C13.0396 59.8175 12.3848 59.2325 12.3848 58.7707C12.3848 58.052 15.48 51.4579 17.6163 47.6256C20.4323 42.5738 24.0363 37.2621 27.1602 33.5594L28.0731 32.4775L27.5644 31.8111C25.4544 29.0468 25.3 24.9938 27.1899 21.9766C27.7042 21.1557 43.6947 4.96775 45.6979 3.24009C47.1043 2.0273 48.3036 1.44668 49.8326 1.23855C50.4791 1.15055 51.4786 0.978574 52.0539 0.856355ZM60.2716 11.8651C60.2716 11.0971 60.6524 10.49 61.3175 10.1979C61.8761 9.95261 62.7526 10.1591 63.2459 10.6525C63.6383 11.045 63.7081 11.2265 63.7081 11.856C63.7081 12.494 63.6401 12.6653 63.2196 13.0858C62.7992 13.5062 62.6278 13.5742 61.9898 13.5742C61.3518 13.5742 61.1805 13.5062 60.76 13.0858C60.3412 12.667 60.2716 12.4928 60.2716 11.8651ZM86.1947 14.7779C86.1947 13.5021 86.1602 13.3266 85.8345 12.9476L85.4741 12.5283L82.7306 12.4822C81.2215 12.4566 79.938 12.4847 79.8784 12.5443C79.6993 12.7235 79.7561 13.8729 79.9567 14.1294C80.1012 14.3143 85.6978 16.189 86.1048 16.189C86.1542 16.189 86.1947 15.5539 86.1947 14.7779ZM61.7657 50.8618C61.7657 50.0939 62.1466 49.4868 62.8116 49.1947C63.3703 48.9494 64.2467 49.1559 64.7401 49.6492C65.1324 50.0417 65.2022 50.2233 65.2022 50.8527C65.2022 51.4907 65.1342 51.6621 64.7138 52.0825C64.2933 52.503 64.1219 52.571 63.484 52.571C62.846 52.571 62.6746 52.503 62.2541 52.0825C61.8353 51.6637 61.7657 51.4895 61.7657 50.8618ZM48.9143 77.9684C48.9822 77.9325 49.1044 77.8864 49.1859 77.8659C49.7018 77.7362 50.2729 78.1438 50.334 78.6853C50.3398 78.7373 50.3486 78.7799 50.3512 78.8229C50.3724 79.1781 49.9719 79.5586 44.0337 85.4891C38.0343 91.4808 37.6964 91.8224 37.3414 91.8412C37.3156 91.8426 37.2897 91.8422 37.2615 91.8422C36.9079 91.8422 36.7202 91.697 35.8193 90.7269C33.1338 87.8349 31.7133 86.2686 31.629 86.1064C31.5026 85.863 31.5064 85.5133 31.6385 85.2403C31.8466 84.8105 32.3782 84.6226 32.826 84.8207C33.0637 84.9258 33.2033 85.0704 35.8542 87.9563L37.2862 89.5152L43.0385 83.7744C46.2023 80.617 48.8464 78.0043 48.9143 77.9684Z" fill="#E6C269"/>
</svg>
