<?xml version="1.0" encoding="utf-8"?><svg viewBox="0 0 32 38" xmlns="http://www.w3.org/2000/svg" xmlns:xlink="http://www.w3.org/1999/xlink"><style>:root>svg{display:none}:root>svg:target{display:block}</style><svg viewBox="0 0 24 18" fill="none" id="check" xmlns="http://www.w3.org/2000/svg"><path fill-rule="evenodd" clip-rule="evenodd" d="M23.715 2.2L21.728.214 9.215 13.733 2.202 6.715.215 8.702l9 9.013L23.715 2.2z" fill="currentColor"/></svg><svg viewBox="0 0 30 29" fill="none" id="close" xmlns="http://www.w3.org/2000/svg"><path d="M2.707 2l12.02 12.02m0 0L27.457 26.75M14.728 14.02L26.748 2m-12.02 12.02L2 26.75" stroke="currentColor" stroke-width="4" stroke-linecap="round"/></svg><svg viewBox="0 0 18 19" fill="none" id="failed" xmlns="http://www.w3.org/2000/svg"><path fill-rule="evenodd" clip-rule="evenodd" d="M17.921 1.988c-.548-.55-2-1.988-2-1.988l-6.5 7.018L2.41 0 .421 1.988l9 9.012 8.5-9.012z" fill="currentColor"/><path fill-rule="evenodd" clip-rule="evenodd" d="M17.921 16.51c-.548.55-2 1.988-2 1.988l-6.5-7.018-7.012 7.018-1.987-1.987 9-9.013 8.5 9.013z" fill="currentColor"/></svg><svg viewBox="0 0 32 38" fill="none" id="filter" xmlns="http://www.w3.org/2000/svg"><path d="M10 5a2 2 0 100 4 2 2 0 000-4zM4.34 5a6.002 6.002 0 0111.32 0H30a2 2 0 010 4H15.66A6.002 6.002 0 014.34 9H2a2 2 0 110-4h2.34zM22 17a2 2 0 100 4 2 2 0 000-4zm-5.66 0a6.002 6.002 0 0111.32 0H30a2 2 0 010 4h-2.34a6.001 6.001 0 01-11.32 0H2a2 2 0 110-4h14.34zM10 29a2 2 0 100 4 2 2 0 000-4zm-5.66 0a6.002 6.002 0 0111.32 0H30a2 2 0 010 4H15.66a6.001 6.001 0 01-11.32 0H2a2 2 0 110-4h2.34z" fill="currentColor"/></svg><svg viewBox="0 0 18 16" fill="none" id="telegram" xmlns="http://www.w3.org/2000/svg"><path d="M.837 6.452L16.649.504c.734-.258 1.375.175 1.137 1.258l.001-.002-2.692 12.375c-.2.877-.734 1.09-1.482.677l-4.1-2.948-1.977 1.86c-.219.212-.403.392-.827.392L7 10.046 14.6 3.348c.33-.284-.074-.444-.51-.16L4.7 8.954.65 7.723c-.88-.272-.898-.857.186-1.27z" fill="currentColor"/></svg><svg viewBox="0 0 11 18" fill="none" id="triangle-arrow-left" xmlns="http://www.w3.org/2000/svg"><path fill-rule="evenodd" clip-rule="evenodd" d="M9.012 18L11 16.013 3.982 9 11 1.987 9.012 0 1.06 7.946C.77 8.236 0 9 0 9s.77.764 1.06 1.054L9.012 18z" fill="currentColor"/></svg><svg viewBox="0 0 11 18" fill="none" id="triangle-arrow-right" xmlns="http://www.w3.org/2000/svg"><path fill-rule="evenodd" clip-rule="evenodd" d="M1.988 0L0 1.987 7.018 9 0 16.013 1.988 18l7.952-7.947C10.23 9.764 11 9 11 9s-.77-.764-1.06-1.054L1.988 0z" fill="currentColor"/></svg><svg viewBox="0 0 24 14" fill="none" id="vk" xmlns="http://www.w3.org/2000/svg"><path d="M20.116 8.73c.746.729 1.535 1.414 2.204 2.218.297.355.576.723.79 1.136.303.59.029 1.236-.5 1.272l-3.277-.001c-.847.07-1.52-.271-2.088-.85-.454-.462-.874-.954-1.311-1.431a3.063 3.063 0 00-.59-.525c-.447-.291-.835-.202-1.091.265-.261.475-.32 1.001-.346 1.53-.036.773-.269.975-1.044 1.011-1.657.078-3.23-.174-4.69-1.009-1.29-.737-2.288-1.777-3.157-2.955C3.322 7.096 2.026 4.577.86 1.985c-.263-.584-.07-.896.573-.908a91.23 91.23 0 013.21-.001c.435.007.723.256.89.667.579 1.422 1.287 2.775 2.176 4.03.236.335.478.668.822.904.38.26.669.174.848-.25.115-.269.164-.557.189-.846.085-.989.095-1.977-.052-2.962-.092-.617-.438-1.015-1.053-1.131-.313-.06-.267-.176-.115-.354.264-.31.512-.5 1.007-.5l3.703-.001c.584.114.715.376.794.964l.003 4.116c-.007.227.114.902.523 1.05.327.109.543-.154.74-.361.887-.943 1.52-2.055 2.087-3.206.25-.508.466-1.033.675-1.56.156-.389.398-.58.837-.574l3.567.004c.105 0 .212.001.316.02.6.102.765.36.58.947-.293.921-.862 1.689-1.418 2.458-.596.823-1.23 1.618-1.82 2.446-.543.756-.5 1.137.173 1.793z" fill="currentColor"/></svg></svg>